<svg width="67" height="57" viewBox="0 0 67 57" fill="none" xmlns="http://www.w3.org/2000/svg">
<path d="M53.7851 12.3801C56.4572 11.5957 59.034 13.3072 59.7395 16.3252C59.9118 17.0644 59.8673 18.0052 59.2566 18.3253C58.8301 18.5504 58.2958 18.3611 57.8701 18.0841C57.4437 17.804 57.0548 17.4356 56.591 17.2568C56.0419 17.0487 55.4448 17.1305 54.8784 17.0019C54.3317 16.8747 53.8096 16.5387 53.4666 16.0407C53.1937 15.6478 53.0387 15.1776 52.8892 14.7158C52.7179 14.1848 52.5505 13.5844 52.7763 13.1035C52.9681 12.7001 53.3852 12.5003 53.7851 12.3801Z" fill="#7F6234"/>
<path d="M35.029 18.7877C34.6046 19.0807 34.1867 19.398 33.7761 19.7426C29.2986 23.4877 30.3322 25.9974 30.3757 26.0998C29.6611 26.1641 28.8245 26.1341 27.8514 25.9679C22.3065 25.0191 17.5858 23.6213 15.9885 20.9205C16.4238 20.8006 22.5638 19.0609 24.3046 16.4369C24.7343 15.7905 25.1074 14.9573 25.4958 14.0482C26.7322 11.1422 28.1005 7.47733 31.901 6.68061C36.888 5.63116 35.3748 9.93453 33.5096 11.9498C31.6444 13.9651 34.2519 15.9356 36.5472 14.3102C38.8425 12.6849 42.6578 7.26278 48.1618 9.10576C53.6629 10.9495 49.1179 15.345 46.4493 15.3365C44.0204 15.3323 39.3023 15.8208 35.029 18.7877Z" fill="#7F6234"/>
<path d="M37.1622 25.5817C37.1622 25.5817 41.3749 27.6468 41.0858 30.7553C40.796 33.8607 38.2529 43.3091 38.2529 43.3091C38.2529 43.3091 36.1653 46.2509 32.6792 46.5364L32.6625 46.5344C32.9466 45.2002 33.3096 43.4865 33.7064 41.6104C33.8242 41.6049 35.5139 41.4977 36.1327 39.7642C36.7738 37.9694 37.7039 33.0661 37.7039 33.0661C37.7039 33.0661 37.6728 31.1451 36.1779 29.8737L36.1771 29.8707C36.5676 28.0192 36.8851 26.4968 37.0742 25.602L37.1622 25.5817Z" fill="#FFF7D6"/>
<path d="M30.3757 26.0998C30.3322 25.9974 29.2986 23.4878 33.7761 19.7427C34.1867 19.398 34.6046 19.0807 35.029 18.7877C36.8756 20.8904 37.2583 24.7249 37.2583 24.7249C37.2583 24.7249 37.1919 25.0425 37.0742 25.602C36.8851 26.4968 36.5676 28.0192 36.1771 29.8707L36.1779 29.8737C35.4636 33.2721 34.5153 37.7826 33.7064 41.6104C33.3096 43.4865 32.9466 45.2003 32.6625 46.5344C32.3528 47.9895 32.1327 48.9969 32.0663 49.2786C31.1454 51.1843 26.7059 54.036 18.401 52.6534C10.0961 51.2709 7.76905 42.5864 7.76905 42.5864C7.76905 42.5864 12.9004 18.7691 13.4697 15.804C15.424 10.8968 25.4851 14.0445 25.4851 14.0445L25.4958 14.0482C25.1074 14.9573 24.7343 15.7906 24.3046 16.4369C22.5638 19.0609 16.4238 20.8006 15.9885 20.9205C17.5858 23.6213 22.3065 25.0191 27.8514 25.9679C28.8245 26.1341 29.6611 26.1641 30.3757 26.0998ZM25.0105 29.985C25.2468 29.1101 24.7378 28.1612 23.9095 27.9334L22.6448 27.5814C21.9069 27.3782 21.1829 27.8166 20.9719 28.5934C20.6926 29.633 20.3061 31.0662 20.0274 32.1317C19.8155 32.9413 20.2407 33.8182 20.9851 34.1174L22.1956 34.6045C22.9681 34.9125 23.7875 34.4811 24.0147 33.6445L25.0105 29.985ZM22.0373 40.2103C22.3463 40.0036 22.2963 39.4923 21.9535 39.3201L13.6778 35.1465C13.3495 34.9803 13.0002 35.2531 13.0425 35.6394L13.8704 42.9885C13.8903 43.1591 13.9854 43.3096 14.1239 43.3931L15.5825 44.2766C15.7294 44.3676 15.9093 44.365 16.048 44.2692L22.0373 40.2103ZM18.0237 26.3622C18.2212 25.6314 17.9025 24.827 17.2671 24.453L16.4345 23.9689C15.6309 23.4965 14.6683 23.9109 14.4193 24.8348C14.1211 25.9478 13.7453 27.3489 13.4971 28.3117C13.3232 28.9742 13.5754 29.6986 14.1131 30.1053L14.8955 30.6909C15.7071 31.3013 16.7874 30.9173 17.057 29.926L18.0237 26.3622Z" fill="#FFF7D6"/>
<path d="M23.9095 27.9334C24.7378 28.1612 25.2468 29.1101 25.0105 29.985L24.0147 33.6445C23.7875 34.4811 22.9681 34.9125 22.1956 34.6045L20.985 34.1174C20.2407 33.8182 19.8155 32.9413 20.0274 32.1317C20.3061 31.0662 20.6926 29.633 20.9719 28.5934C21.1829 27.8166 21.9069 27.3782 22.6448 27.5813L23.9095 27.9334Z" fill="#292C33"/>
<path d="M21.9535 39.3201C22.2963 39.4923 22.3463 40.0036 22.0373 40.2103L16.048 44.2692C15.9093 44.365 15.7294 44.3676 15.5825 44.2766L14.1239 43.3931C13.9854 43.3096 13.8903 43.1591 13.8704 42.9885L13.0425 35.6394C13.0002 35.2531 13.3495 34.9802 13.6778 35.1465L21.9535 39.3201Z" fill="#292C33"/>
<path d="M17.2671 24.453C17.9025 24.827 18.2212 25.6314 18.0236 26.3622L17.057 29.926C16.7874 30.9173 15.7071 31.3013 14.8955 30.6909L14.1131 30.1053C13.5753 29.6986 13.3232 28.9742 13.4971 28.3117C13.7453 27.3489 14.1211 25.9478 14.4193 24.8348C14.6683 23.9109 15.6309 23.4965 16.4345 23.9689L17.2671 24.453Z" fill="#292C33"/>
<path d="M15.9644 20.927C15.9644 20.927 15.9734 20.9246 15.9885 20.9205C16.4238 20.8006 22.5638 19.0609 24.3046 16.4369C24.7343 15.7905 25.1074 14.9572 25.4958 14.0482C26.7322 11.1422 28.1005 7.47732 31.901 6.6806C36.888 5.63116 35.3748 9.93453 33.5096 11.9498C31.6444 13.9651 34.2519 15.9356 36.5472 14.3102C38.8425 12.6849 42.6578 7.26277 48.1619 9.10575C53.6629 10.9495 49.1179 15.345 46.4493 15.3365C44.0204 15.3323 39.3023 15.8208 35.029 18.7877C34.6046 19.0807 34.1867 19.398 33.7761 19.7426C29.2986 23.4877 30.3322 25.9973 30.3757 26.0997C30.3765 26.1028 30.3765 26.1028 30.3765 26.1028" stroke="#292C33" stroke-width="1.453" stroke-miterlimit="10" stroke-linecap="round" stroke-linejoin="round"/>
<path d="M18.4118 15.1283C18.4118 15.1283 14.9664 15.5659 15.4407 19.3335C15.5138 19.907 15.7001 20.434 15.9885 20.9205C17.5859 23.6213 22.3065 25.0191 27.8514 25.9679C28.8245 26.1341 29.6611 26.1641 30.3757 26.0998C34.4669 25.714 34.635 22.0579 34.3099 21.3139" stroke="#292C33" stroke-width="1.453" stroke-miterlimit="10" stroke-linecap="round" stroke-linejoin="round"/>
<path d="M36.1771 29.8707C36.5676 28.0192 36.8852 26.4968 37.0742 25.602C37.1919 25.0425 37.2583 24.7249 37.2583 24.7249C37.2583 24.7249 36.8757 20.8904 35.0291 18.7877C35.0236 18.7794 35.0152 18.7719 35.0097 18.7635" stroke="#292C33" stroke-width="1.453" stroke-miterlimit="10" stroke-linecap="round" stroke-linejoin="round"/>
<path d="M25.4851 14.0445C25.4851 14.0445 15.424 10.8968 13.4697 15.804C12.9004 18.7691 7.76905 42.5864 7.76905 42.5864C7.76905 42.5864 10.0961 51.2709 18.401 52.6534C26.7059 54.036 31.1454 51.1843 32.0663 49.2786C32.1327 48.9969 32.3528 47.9895 32.6625 46.5344C32.9466 45.2003 33.3096 43.4865 33.7064 41.6104C34.5153 37.7826 35.4636 33.2721 36.1779 29.8737" stroke="#292C33" stroke-width="1.453" stroke-miterlimit="10" stroke-linecap="round" stroke-linejoin="round"/>
<path d="M37.1622 25.5817C37.1622 25.5817 41.3749 27.6468 41.0858 30.7553C40.796 33.8607 38.2529 43.3091 38.2529 43.3091C38.2529 43.3091 36.1653 46.2509 32.6792 46.5364" stroke="#292C33" stroke-width="1.453" stroke-miterlimit="10" stroke-linecap="round" stroke-linejoin="round"/>
<path d="M33.6996 41.609C33.6996 41.609 33.7026 41.6082 33.7064 41.6104C33.8243 41.6049 35.5139 41.4977 36.1328 39.7642C36.7738 37.9694 37.704 33.0662 37.704 33.0662C37.704 33.0662 37.6728 31.1451 36.1779 29.8737L36.1771 29.8707C36.1725 29.8654 36.1648 29.8609 36.1602 29.8557" stroke="#292C33" stroke-width="1.453" stroke-miterlimit="10" stroke-linecap="round" stroke-linejoin="round"/>
<path d="M53.7851 12.3801C53.3852 12.5003 52.9681 12.7001 52.7763 13.1035C52.5505 13.5844 52.7179 14.1848 52.8892 14.7158C53.0387 15.1776 53.1937 15.6478 53.4666 16.0407C53.8096 16.5387 54.3317 16.8747 54.8784 17.0019C55.4448 17.1305 56.0419 17.0487 56.591 17.2568C57.0548 17.4356 57.4437 17.804 57.8701 18.0841C58.2958 18.3611 58.8301 18.5504 59.2566 18.3253C59.8673 18.0052 59.9118 17.0644 59.7395 16.3252C59.034 13.3072 56.4572 11.5957 53.7851 12.3801Z" stroke="#292C33" stroke-width="1.453" stroke-miterlimit="10" stroke-linecap="round" stroke-linejoin="round"/>
<path d="M13.4971 28.3117C13.7453 27.3489 14.1211 25.9478 14.4193 24.8348C14.6683 23.9109 15.6309 23.4965 16.4345 23.9689L17.2671 24.453C17.9025 24.827 18.2212 25.6314 18.0236 26.3622L17.057 29.926C16.7874 30.9173 15.7071 31.3013 14.8955 30.6909L14.1131 30.1053C13.5753 29.6986 13.3232 28.9742 13.4971 28.3117Z" stroke="#292C33" stroke-width="1.453" stroke-miterlimit="10" stroke-linecap="round" stroke-linejoin="round"/>
<path d="M20.0274 32.1317C20.3061 31.0662 20.6926 29.633 20.9719 28.5934C21.1829 27.8166 21.9069 27.3782 22.6448 27.5813L23.9095 27.9334C24.7378 28.1612 25.2468 29.1101 25.0105 29.985L24.0147 33.6445C23.7875 34.4811 22.9681 34.9125 22.1956 34.6045L20.985 34.1174C20.2407 33.8182 19.8155 32.9413 20.0274 32.1317Z" stroke="#292C33" stroke-width="1.453" stroke-miterlimit="10" stroke-linecap="round" stroke-linejoin="round"/>
<path d="M13.6778 35.1465L21.9535 39.3201C22.2963 39.4923 22.3463 40.0036 22.0373 40.2103L16.048 44.2692C15.9093 44.365 15.7294 44.3676 15.5825 44.2766L14.1239 43.3931C13.9854 43.3096 13.8903 43.1591 13.8704 42.9885L13.0425 35.6394C13.0002 35.2531 13.3495 34.9802 13.6778 35.1465Z" stroke="#292C33" stroke-width="1.453" stroke-miterlimit="10" stroke-linecap="round" stroke-linejoin="round"/>
</svg>
