<svg width="83" height="83" viewBox="0 0 83 83" fill="none" xmlns="http://www.w3.org/2000/svg">
<path d="M81.656 49.4603C82.4167 52.1715 80.8495 55.4302 78.1478 56.7337L34.7375 77.759L26.8685 81.5717C25.1308 82.4124 23.3603 82.243 22.1078 81.2914L12.934 70.9483L12.9471 70.9287C14.1536 71.613 15.7274 71.6652 17.2619 70.9157L68.5477 46.0842C71.2428 44.7742 72.8166 41.5155 72.0559 38.8043L62.3181 4.02718C62.187 3.56444 61.9968 3.14733 61.7542 2.78235L68.7772 10.7662C70.4035 12.187 71.9772 14.7353 72.5215 16.8665L81.656 49.4603Z" fill="#F1D9BD"/>
<path d="M78.1478 56.7337C78.1478 56.7337 78.8101 57.9394 78.8101 59.0018C78.6527 61.7587 76.5347 62.7363 76.5347 62.7363C76.5347 62.7363 46.9081 78.0066 43.3277 79.6034C39.7474 81.2002 38.449 80.1313 38.449 80.1313L34.8621 78.0066L34.7375 77.759L78.1478 56.7337Z" fill="#F1D9BD"/>
<path d="M61.7542 2.78232C61.9968 3.1473 62.187 3.56441 62.3181 4.02715L72.0559 38.8042C72.8166 41.5155 71.2428 44.7742 68.5477 46.0842L17.2619 70.9156C15.7274 71.6651 14.1537 71.613 12.9471 70.9287C12.0356 70.4138 11.3274 69.5405 10.9995 68.3738L1.26827 33.5903C0.507606 30.879 2.08139 27.6203 4.7765 26.3168L56.0623 1.47883C58.2984 0.396936 60.6066 0.99654 61.7542 2.78232ZM21.5373 61.3024C21.9636 61.2698 22.3964 61.146 22.8357 60.9374L59.3804 43.2426C61.3017 42.3106 62.423 39.9904 61.8853 38.0547L54.9475 13.2689C54.8098 12.7866 54.5803 12.3695 54.2852 12.0371C53.4066 11.0399 51.9246 10.7597 50.4885 11.457L13.9373 29.1584C12.0159 30.0839 10.9012 32.4106 11.4389 34.3398L18.3767 59.1256C18.7898 60.6246 20.0816 61.4458 21.5373 61.3024Z" fill="#F1D9BD"/>
<path d="M61.8853 38.0547C62.423 39.9904 61.3017 42.3106 59.3804 43.2426L22.8357 60.9374C22.3964 61.146 21.9636 61.2698 21.5373 61.3024C21.2554 60.9896 21.0455 60.5985 20.9209 60.1488L13.9307 35.174C13.3995 33.2905 14.5799 30.9963 16.5537 30.0382L52.9082 12.4346C53.3738 12.2065 53.8393 12.0762 54.2853 12.0371C54.5803 12.3695 54.8098 12.7866 54.9475 13.2689L61.8853 38.0547ZM39.5703 48.3848C46.2852 45.5954 47.7934 38.3089 47.6557 34.8481C47.6229 34.0465 46.9802 33.4273 46.272 33.4664C45.5376 33.499 44.9737 34.1768 45.0065 34.972C45.0065 35.0502 45.2491 42.9297 38.6261 45.6801C32.1276 48.3848 28.6653 43.4446 28.5145 43.223C28.0817 42.5778 27.2554 42.4409 26.6653 42.9037C26.0685 43.3729 25.9374 44.2789 26.3702 44.9306C27.5833 46.749 30.6129 49.3755 34.908 49.3755C36.3309 49.3755 37.8916 49.0822 39.5703 48.3848ZM39.7015 33.323C40.7244 32.9972 41.0785 30.9572 40.4949 28.7608C39.9113 26.5645 38.6129 25.0459 37.59 25.3718C36.567 25.6976 36.2064 27.7376 36.7965 29.934C37.3801 32.1303 38.6785 33.6489 39.7015 33.323ZM29.8063 37.7744C30.8227 37.4486 31.1834 35.4086 30.5997 33.2122C30.0161 31.0159 28.7112 29.4973 27.6882 29.8232C26.6653 30.1491 26.3112 32.189 26.8948 34.3854C27.4784 36.5818 28.7833 38.1003 29.8063 37.7744Z" fill="#2FDB48"/>
<path d="M54.2852 12.037C53.8393 12.0762 53.3738 12.2065 52.9082 12.4346L16.5537 30.0382C14.5799 30.9963 13.3995 33.2904 13.9307 35.174L20.9209 60.1488C21.0455 60.5985 21.2554 60.9895 21.5373 61.3024C20.0816 61.4458 18.7898 60.6246 18.3767 59.1256L11.4389 34.3397C10.9012 32.4106 12.0159 30.0838 13.9373 29.1584L50.4885 11.457C51.9246 10.7596 53.4065 11.0399 54.2852 12.037Z" fill="#F1D9BD"/>
<path d="M47.6557 34.8481C47.7934 38.3089 46.2852 45.5954 39.5703 48.3848C37.8916 49.0822 36.331 49.3755 34.908 49.3755C30.6129 49.3755 27.5833 46.749 26.3702 44.9306C25.9374 44.2788 26.0686 43.3729 26.6653 42.9037C27.2555 42.4409 28.0817 42.5778 28.5145 43.223C28.6653 43.4446 32.1276 48.3848 38.6261 45.6801C45.2491 42.9297 45.0065 35.0502 45.0065 34.9719C44.9737 34.1768 45.5376 33.499 46.2721 33.4664C46.9803 33.4273 47.6229 34.0465 47.6557 34.8481Z" fill="#292C33"/>
<path d="M40.4949 28.7608C41.0785 30.9572 40.7244 32.9972 39.7015 33.323C38.6785 33.6489 37.3801 32.1303 36.7965 29.934C36.2063 27.7376 36.567 25.6976 37.59 25.3717C38.6129 25.0459 39.9113 26.5644 40.4949 28.7608Z" fill="#292C33"/>
<path d="M30.5997 33.2123C31.1833 35.4087 30.8227 37.4486 29.8063 37.7745C28.7833 38.1004 27.4784 36.5818 26.8948 34.3854C26.3112 32.1891 26.6653 30.1491 27.6882 29.8232C28.7112 29.4974 30.0161 31.0159 30.5997 33.2123Z" fill="#292C33"/>
<path d="M61.7542 2.78232C61.9968 3.1473 62.187 3.56441 62.3181 4.02715L72.0559 38.8042C72.8166 41.5155 71.2428 44.7742 68.5477 46.0842L17.2619 70.9156C15.7274 71.6651 14.1537 71.613 12.9471 70.9287C12.0356 70.4138 11.3274 69.5405 10.9995 68.3738L1.26827 33.5903C0.507606 30.879 2.08139 27.6203 4.7765 26.3168L56.0623 1.47883C58.2984 0.396936 60.6066 0.99654 61.7542 2.78232Z" stroke="#292C33" stroke-width="1.453" stroke-miterlimit="10" stroke-linecap="round" stroke-linejoin="round"/>
<path d="M12.934 70.9482L22.1078 81.2914C23.3603 82.2429 25.1308 82.4124 26.8685 81.5716L34.7375 77.7589L78.1478 56.7337C80.8495 55.4302 82.4167 52.1715 81.656 49.4602L72.5215 16.8665C71.9772 14.7353 70.4035 12.187 68.7772 10.7662L61.7542 2.7823L61.2886 2.24786" stroke="#292C33" stroke-width="1.453" stroke-miterlimit="10" stroke-linecap="round" stroke-linejoin="round"/>
<path d="M54.2853 12.037C54.5803 12.3694 54.8098 12.7865 54.9476 13.2688L61.8853 38.0547C62.423 39.9903 61.3017 42.3106 59.3804 43.2426L22.8357 60.9374C22.3964 61.146 21.9636 61.2698 21.5373 61.3024C20.0816 61.4458 18.7898 60.6246 18.3767 59.1256L11.4389 34.3397C10.9012 32.4106 12.0159 30.0838 13.9373 29.1584L50.4885 11.457C51.9246 10.7596 53.4066 11.0399 54.2853 12.037Z" stroke="#292C33" stroke-width="1.453" stroke-miterlimit="10" stroke-linecap="round" stroke-linejoin="round"/>
<path d="M21.5701 61.3415C21.557 61.3285 21.5505 61.3154 21.5373 61.3024C21.2554 60.9896 21.0455 60.5985 20.9209 60.1488L13.9307 35.174C13.3995 33.2904 14.5799 30.9963 16.5537 30.0382L52.9082 12.4346C53.3738 12.2065 53.8393 12.0762 54.2852 12.0371C54.3115 12.0305 54.3443 12.024 54.3705 12.024" stroke="#292C33" stroke-width="1.453" stroke-miterlimit="10" stroke-linecap="round" stroke-linejoin="round"/>
<path d="M34.8621 78.0066L38.449 80.1313C38.449 80.1313 39.7474 81.2002 43.3277 79.6034C46.9081 78.0066 76.5347 62.7363 76.5347 62.7363C76.5347 62.7363 78.6527 61.7587 78.8101 59.0018C78.8101 57.9394 78.1478 56.7337 78.1478 56.7337" stroke="#292C33" stroke-width="1.453" stroke-miterlimit="10" stroke-linecap="round" stroke-linejoin="round"/>
<path d="M34.908 49.3755C30.6129 49.3755 27.5833 46.749 26.3702 44.9306C25.9374 44.2788 26.0686 43.3729 26.6653 42.9037C27.2555 42.4409 28.0817 42.5778 28.5145 43.223C28.6653 43.4446 32.1276 48.3848 38.6261 45.6801C45.2491 42.9297 45.0065 35.0502 45.0065 34.9719C44.9737 34.1768 45.5376 33.499 46.2721 33.4664C46.9803 33.4273 47.6229 34.0465 47.6557 34.8481C47.7934 38.3089 46.2852 45.5954 39.5703 48.3848C37.8916 49.0822 36.331 49.3755 34.908 49.3755Z" stroke="#292C33" stroke-width="1.453" stroke-miterlimit="10" stroke-linecap="round" stroke-linejoin="round"/>
<path d="M30.5997 33.2123C31.1833 35.4087 30.8227 37.4486 29.8063 37.7745C28.7833 38.1004 27.4784 36.5818 26.8948 34.3854C26.3112 32.1891 26.6653 30.1491 27.6882 29.8232C28.7112 29.4974 30.0161 31.0159 30.5997 33.2123Z" stroke="#292C33" stroke-width="1.453" stroke-miterlimit="10" stroke-linecap="round" stroke-linejoin="round"/>
<path d="M40.4949 28.7608C41.0785 30.9572 40.7244 32.9972 39.7015 33.323C38.6785 33.6489 37.3801 32.1303 36.7965 29.934C36.2063 27.7376 36.567 25.6976 37.59 25.3717C38.6129 25.0459 39.9113 26.5644 40.4949 28.7608Z" stroke="#292C33" stroke-width="1.453" stroke-miterlimit="10" stroke-linecap="round" stroke-linejoin="round"/>
</svg>
