<svg width="59" height="69" viewBox="0 0 59 69" fill="none" xmlns="http://www.w3.org/2000/svg">
<path d="M38.3358 38.3991C38.6068 38.7243 38.6326 39.1916 38.4003 39.5802L34.3473 46.4163C33.9521 47.0863 33.0115 47.2141 32.5413 46.6637L24.7638 37.5277C24.4885 37.2036 24.4615 36.732 24.697 36.3379L28.4238 30.0974C28.8234 29.4262 29.7639 29.2984 30.231 29.8543L31.051 30.8305C31.3275 31.159 31.3497 31.6389 31.1071 32.0326L28.4436 36.3143C28.1994 36.7107 28.2216 37.1906 28.5009 37.5207L32.3357 42.0282C32.8083 42.5873 33.7581 42.4501 34.1509 41.7714L36.1824 38.2551C36.5768 37.5736 37.5277 37.4407 38.0003 37.9998L38.3358 38.3991Z" fill="#007800"/>
<path d="M44.8852 26.6038C45.1375 26.9293 45.1542 27.3803 44.9294 27.7622L41.3435 33.7785C40.936 34.4635 39.9704 34.5769 39.5122 33.9929L38.2464 32.3664C37.9941 32.0409 37.979 31.5871 38.2022 31.208L41.7881 25.1917C42.1956 24.5067 43.1612 24.3933 43.6194 24.9773L44.8852 26.6038Z" fill="#007800"/>
<path d="M39.2066 20.2398C39.4577 20.561 39.4756 21.0164 39.2497 21.3939L35.6665 27.4119C35.2574 28.0995 34.2918 28.2129 33.8352 27.6262L32.5666 25.9982C32.3155 25.677 32.2977 25.2216 32.5236 24.8441L36.1067 18.8261C36.5159 18.1385 37.4842 18.0266 37.9381 18.6117L39.2066 20.2398Z" fill="#007800"/>
<path d="M31.9204 56.9883C31.5735 57.5941 30.7284 57.7106 30.3172 57.2053L17.7372 41.7722C17.5095 41.4939 17.4883 41.0954 17.6787 40.76L34.9325 10.6495C35.2794 10.0438 36.1245 9.92722 36.5329 10.4309L49.1157 25.8656C49.3419 26.1467 49.3647 26.5424 49.1715 26.8762L31.9204 56.9883ZM38.4003 39.5802C38.6326 39.1916 38.6068 38.7243 38.3358 38.3991L38.0003 37.9998C37.5277 37.4407 36.5768 37.5736 36.1824 38.255L34.1509 41.7714C33.758 42.45 32.8083 42.5873 32.3357 42.0282L28.5009 37.5206C28.2216 37.1906 28.1994 36.7107 28.4436 36.3143L31.1071 32.0325C31.3497 31.6389 31.3275 31.159 31.051 30.8305L30.231 29.8543C29.7639 29.2984 28.8234 29.4262 28.4238 30.0973L24.697 36.3379C24.4615 36.7319 24.4885 37.2036 24.7638 37.5277L32.5413 46.6637C33.0115 47.2141 33.9521 47.0863 34.3473 46.4163L38.4003 39.5802ZM44.9294 27.7622C45.1542 27.3803 45.1375 26.9293 44.8852 26.6037L43.6194 24.9772C43.1612 24.3933 42.1956 24.5067 41.7881 25.1916L38.2022 31.208C37.979 31.5871 37.9941 32.0409 38.2464 32.3664L39.5122 33.9929C39.9704 34.5768 40.936 34.4634 41.3435 33.7785L44.9294 27.7622ZM39.2496 21.3939C39.4756 21.0164 39.4577 20.561 39.2066 20.2398L37.938 18.6117C37.4842 18.0266 36.5158 18.1384 36.1067 18.8261L32.5235 24.8441C32.2976 25.2216 32.3155 25.677 32.5666 25.9982L33.8352 27.6262C34.2918 28.2129 35.2573 28.0995 35.6665 27.4119L39.2496 21.3939Z" fill="#2FDB48"/>
<path d="M19.5902 57.9577C19.9154 58.362 19.6201 58.9938 19.0687 59.0699L18.8632 59.0987C18.6258 59.1312 18.3995 59.0487 18.2589 58.8758L14.9994 54.8394C14.6743 54.435 14.9696 53.8032 15.521 53.7272L15.7265 53.6984C15.9638 53.6659 16.1885 53.7511 16.3291 53.9241L19.5902 57.9577Z" fill="#999999"/>
<path d="M28.4861 65.2254L23.1685 65.2823C22.3939 65.3217 21.6253 65.0373 21.1127 64.4L6.21778 45.8644C5.59316 45.0816 5.54322 43.9714 6.09127 43.0437L28.1305 5.91933C28.669 5.0082 29.6181 4.51378 30.5457 4.48518L35.6315 4.46402C34.8367 4.60223 34.0697 5.07644 33.6063 5.8579L11.5714 42.9811C11.019 43.91 11.0689 45.0202 11.6979 45.8018L26.5885 64.3386C27.0662 64.9337 27.7656 65.2225 28.4861 65.2254ZM19.0687 59.0699C19.6201 58.9938 19.9154 58.362 19.5902 57.9577L16.3291 53.9241C16.1885 53.7511 15.9638 53.6659 15.7265 53.6984L15.521 53.7272C14.9696 53.8032 14.6743 54.435 14.9995 54.8393L18.2589 58.8757C18.3996 59.0487 18.6258 59.1312 18.8632 59.0986L19.0687 59.0699Z" fill="#757575"/>
<path d="M35.6315 4.46405C36.5161 4.31137 37.4365 4.5766 38.0239 5.30848L52.9145 23.8453C53.5435 24.6269 53.5934 25.7371 53.041 26.6659L31.0061 63.7892C30.4696 64.6904 29.5349 65.1857 28.6168 65.2235L28.4861 65.2254C27.7656 65.2225 27.0662 64.9337 26.5885 64.3386L11.6979 45.8018C11.0689 45.0202 11.019 43.91 11.5714 42.9812L33.6063 5.85793C34.0697 5.07646 34.8367 4.60226 35.6315 4.46405ZM30.3172 57.2053C30.7284 57.7107 31.5735 57.5941 31.9205 56.9883L49.1715 26.8762C49.3647 26.5424 49.3419 26.1467 49.1157 25.8657L36.5329 10.431C36.1245 9.92725 35.2794 10.0438 34.9325 10.6496L17.6787 40.7601C17.4883 41.0955 17.5095 41.4939 17.7372 41.7722L30.3172 57.2053Z" fill="#999999"/>
<path d="M28.6168 65.2235C29.5349 65.1857 30.4696 64.6904 31.0061 63.7892L53.041 26.6659C53.5934 25.7371 53.5435 24.6269 52.9145 23.8453L38.0239 5.30848C37.4365 4.5766 36.5161 4.31137 35.6315 4.46405C34.8367 4.60226 34.0697 5.07646 33.6063 5.85793L11.5714 42.9812C11.019 43.91 11.0689 45.0202 11.6979 45.8018L26.5885 64.3386C27.0662 64.9337 27.7656 65.2225 28.4861 65.2254" stroke="#292C33" stroke-width="1.453" stroke-miterlimit="10" stroke-linecap="round" stroke-linejoin="round"/>
<path d="M29.1195 65.2187L28.6168 65.2235L28.486 65.2254L23.1685 65.2823C22.3939 65.3217 21.6253 65.0373 21.1127 64.4L6.21777 45.8644C5.59315 45.0816 5.54322 43.9714 6.09127 43.0437L28.1305 5.91933C28.669 5.0082 29.6181 4.51379 30.5456 4.48518L35.6315 4.46403L36.437 4.46076" stroke="#292C33" stroke-width="1.453" stroke-miterlimit="10" stroke-linecap="round" stroke-linejoin="round"/>
<path d="M16.3291 53.9241L19.5902 57.9577C19.9154 58.362 19.6201 58.9938 19.0687 59.0699L18.8632 59.0987C18.6258 59.1312 18.3995 59.0487 18.2589 58.8758L14.9994 54.8394C14.6743 54.435 14.9696 53.8032 15.521 53.7272L15.7265 53.6984C15.9638 53.6659 16.1885 53.7511 16.3291 53.9241Z" stroke="#292C33" stroke-width="1.453" stroke-miterlimit="10" stroke-linecap="round" stroke-linejoin="round"/>
<path d="M49.1715 26.8762L31.9204 56.9883C31.5735 57.5941 30.7284 57.7106 30.3172 57.2053L17.7372 41.7722C17.5095 41.4939 17.4883 41.0954 17.6787 40.76L34.9325 10.6495C35.2794 10.0438 36.1245 9.92722 36.5329 10.4309L49.1157 25.8656C49.3419 26.1467 49.3647 26.5424 49.1715 26.8762Z" stroke="#292C33" stroke-width="1.453" stroke-miterlimit="10" stroke-linecap="round" stroke-linejoin="round"/>
<path d="M35.6665 27.4119L39.2497 21.3939C39.4756 21.0164 39.4577 20.561 39.2066 20.2398L37.9381 18.6117C37.4842 18.0266 36.5159 18.1385 36.1067 18.8261L32.5236 24.8441C32.2977 25.2216 32.3155 25.677 32.5666 25.9982L33.8352 27.6262C34.2918 28.2129 35.2574 28.0995 35.6665 27.4119Z" stroke="#292C33" stroke-width="1.453" stroke-miterlimit="10" stroke-linecap="round" stroke-linejoin="round"/>
<path d="M41.3435 33.7785L44.9294 27.7622C45.1542 27.3803 45.1375 26.9293 44.8852 26.6038L43.6194 24.9773C43.1612 24.3933 42.1956 24.5067 41.7881 25.1917L38.2022 31.208C37.979 31.5871 37.9941 32.0409 38.2464 32.3664L39.5122 33.9929C39.9704 34.5769 40.936 34.4635 41.3435 33.7785Z" stroke="#292C33" stroke-width="1.453" stroke-miterlimit="10" stroke-linecap="round" stroke-linejoin="round"/>
<path d="M28.4238 30.0974L24.697 36.3379C24.4615 36.732 24.4885 37.2036 24.7638 37.5277L32.5413 46.6637C33.0115 47.2141 33.9521 47.0863 34.3473 46.4163L38.4003 39.5802C38.6326 39.1916 38.6068 38.7243 38.3358 38.3991L38.0003 37.9998C37.5277 37.4407 36.5768 37.5736 36.1824 38.2551L34.1509 41.7714C33.7581 42.4501 32.8083 42.5873 32.3357 42.0282L28.5009 37.5207C28.2216 37.1906 28.1994 36.7107 28.4436 36.3143L31.1071 32.0326C31.3497 31.6389 31.3275 31.159 31.051 30.8305L30.231 29.8543C29.7639 29.2984 28.8234 29.4262 28.4238 30.0974Z" stroke="#292C33" stroke-width="1.453" stroke-miterlimit="10" stroke-linecap="round" stroke-linejoin="round"/>
</svg>
