<svg width="203" height="183" viewBox="0 0 203 183" fill="none" xmlns="http://www.w3.org/2000/svg">
<path d="M53.6731 62.2261L53.3049 65.2941C53.3049 65.2941 53.4437 66.1146 54.175 66.2002C54.0666 66.7805 53.6731 68.3858 53.5143 69.0327C53.4689 69.2063 53.4437 69.311 53.4437 69.311C53.4437 69.311 53.489 70.3479 54.4499 70.6499C54.3238 71.1066 54.1271 71.9889 53.9758 72.6833C53.8724 73.1566 53.7917 73.5443 53.769 73.6466C53.7665 73.6632 53.7639 73.6727 53.7639 73.6727C53.7639 73.6727 53.2142 74.624 54.5432 74.8404C54.2229 75.9202 53.8093 77.5612 53.8093 77.5612C53.8093 77.5612 53.5344 78.3817 54.4499 78.6837L70.8727 79.9585L86.6927 78.6837C87.6081 78.3817 87.3333 77.5612 87.3333 77.5612C87.3333 77.5612 86.9197 75.9202 86.5994 74.8404C87.4543 74.7001 87.5325 74.2578 87.477 73.9581C87.4493 73.794 87.3786 73.6727 87.3786 73.6727C87.3786 73.6727 87.3156 73.3635 87.2223 72.9331C87.0659 72.2148 86.8339 71.1636 86.6927 70.6499C87.2828 70.4644 87.5274 70.003 87.6283 69.6748C87.6939 69.4655 87.6989 69.311 87.6989 69.311C87.6989 69.311 87.1038 66.9351 86.9676 66.2002C87.6989 66.1146 87.8376 65.2941 87.8376 65.2941L87.704 63.1774" stroke="#231F20" stroke-miterlimit="10" stroke-linecap="round" stroke-linejoin="round"/>
<path d="M54.175 66.2002L70.7339 67.475L86.9676 66.2002" stroke="#231F20" stroke-miterlimit="10" stroke-linecap="round" stroke-linejoin="round"/>
<path d="M54.4499 70.6499L70.7339 71.9247L86.6927 70.6499" stroke="#231F20" stroke-miterlimit="10" stroke-linecap="round" stroke-linejoin="round"/>
<path d="M54.5432 74.8405L70.5978 76.1128L86.5994 74.8405" stroke="#231F20" stroke-miterlimit="10" stroke-linecap="round" stroke-linejoin="round"/>
<path d="M48.3141 30.0028C48.3141 30.0028 26.3935 49.0385 51.4312 60.8776C51.4816 60.9014 51.5346 60.9275 51.5875 60.9513" stroke="#231F20" stroke-miterlimit="10" stroke-linecap="round" stroke-linejoin="round"/>
<path d="M57.794 38.2103C57.794 38.2103 46.1553 47.3095 51.6606 60.8324C51.696 60.9228 51.7338 61.0131 51.7716 61.1035C51.9759 61.2201 52.6972 61.6101 54.0111 62.1119C57.1105 63.2915 63.5036 65.0871 74.1688 65.3154C79.7927 65.4344 84.2767 64.445 87.6914 63.1488C87.8301 63.0965 87.9637 63.0442 88.0974 62.9895C89.0583 62.6113 89.9308 62.207 90.7177 61.8004C94.4526 59.8692 96.2256 57.8643 96.2256 57.8643C96.2256 57.8643 96.2785 57.7288 96.3643 57.4767C97.0527 55.4123 99.837 45.571 92.8588 38.8143L92.0568 38.2531" stroke="#231F20" stroke-miterlimit="10" stroke-linecap="round" stroke-linejoin="round"/>
<path d="M96.3164 57.5171C96.3164 57.5171 96.334 57.5028 96.3643 57.4767C97.0275 56.8988 104.27 50.2919 100.071 40.8882C97.9203 36.1364 92.1022 33.7272 92.1022 33.7272" stroke="#231F20" stroke-miterlimit="10" stroke-linecap="round" stroke-linejoin="round"/>
<path d="M68.5348 25.7695H63.2464C56.6944 25.7695 57.4283 29.6128 57.4283 29.6128C57.4283 29.6128 57.4283 35.3587 57.4283 37.2589C57.4283 37.366 57.4409 37.4682 57.4636 37.561C57.5241 37.8059 57.6553 38.0057 57.8368 38.1722C58.828 39.0807 61.2767 38.9428 61.2767 38.9428H65.6724H65.6951" stroke="#231F20" stroke-miterlimit="10" stroke-linecap="round" stroke-linejoin="round"/>
<path d="M89.4567 38.9428C89.6913 38.9428 90.0267 38.9428 90.4983 38.9428C91.3003 38.9428 91.7012 38.5765 91.9005 38.2103C92.1022 37.8416 92.1022 37.4754 92.1022 37.4754C92.1022 37.4754 92.1022 35.7963 92.1022 33.7272C92.1022 32.1789 92.1022 30.4095 92.1022 28.9659C92.1022 28.0098 91.6432 27.3415 90.985 26.8706C89.318 25.6815 86.3775 25.7695 86.3775 25.7695H83.3411" stroke="#231F20" stroke-miterlimit="10" stroke-linecap="round" stroke-linejoin="round"/>
<path d="M89.458 38.9427C89.4477 38.9427 89.44 38.9427 89.4297 38.9427C89.4169 38.9427 89.4015 38.9427 89.3886 38.9427" stroke="#231F20" stroke-miterlimit="10" stroke-linecap="round" stroke-linejoin="round"/>
<path d="M71.9546 38.9428H66.5652C66.5652 38.9428 66.1894 38.9642 65.6725 38.9356C64.5351 38.8714 62.7193 38.5646 62.7193 37.2589C62.7193 35.3587 62.7193 29.6128 62.7193 29.6128C62.7193 29.6128 61.9854 25.7695 68.5348 25.7695H83.341" stroke="#231F20" stroke-miterlimit="10" stroke-linecap="round" stroke-linejoin="round"/>
<path d="M73.0012 37.863H68.0128C66.2147 37.863 64.757 36.4907 64.757 34.795V30.438C64.757 28.7423 66.2147 27.3677 68.0128 27.3677H87.3812C89.1793 27.3677 90.637 28.7423 90.637 30.438V34.795C90.637 36.2196 89.608 37.4159 88.2109 37.7631C88.1983 37.7679 88.1882 37.7702 88.1756 37.7726" stroke="#231F20" stroke-miterlimit="10" stroke-linecap="round" stroke-linejoin="round"/>
<path d="M65.7481 12.2371C67.1629 12.0492 68.6912 11.947 70.3456 11.947C71.1097 11.947 71.8688 11.9826 72.6229 12.054C74.0326 12.1848 75.4172 12.4369 76.7538 12.796C77.7071 13.0552 78.6377 13.3668 79.5355 13.733C79.9995 13.9209 80.4535 14.1231 80.8998 14.3395C81.6917 14.7224 82.4533 15.1457 83.1771 15.6119C86.3598 17.6548 88.8136 20.4493 89.9964 23.7313" stroke="#231F20" stroke-miterlimit="10" stroke-linecap="round" stroke-linejoin="round"/>
<path d="M57.4737 37.561C57.4737 37.561 57.4712 37.561 57.4636 37.561C57.1534 37.511 49.8802 36.3576 48.314 32.5952V30.0028V28.3618C48.314 28.3618 48.4578 26.1144 49.7011 23.2842" stroke="#231F20" stroke-miterlimit="10" stroke-linecap="round" stroke-linejoin="round"/>
<path d="M62.6487 18.599C62.6487 18.599 59.582 10.4772 57.7486 10.91C57.2265 11.0337 56.823 11.3476 56.5128 11.7305C55.7386 12.6937 55.5494 14.1064 55.5494 14.1064L54.6819 22.1902L54.4045 24.7754C54.4045 24.7754 51.7489 26.0715 50.1904 23.7813C50.1904 23.7813 50.1929 23.465 50.2307 22.8918C50.266 22.2877 50.3417 21.3959 50.493 20.2876C50.6115 19.3957 50.778 18.3612 51.0176 17.2244C51.4614 15.0601 52.1524 12.513 53.2141 9.83031C53.2141 9.83031 54.7727 6.11544 57.7486 7.2808C58.5985 7.63754 59.7535 8.6602 61.1103 10.2917C61.5466 10.8102 61.998 11.3881 62.4671 12.0278C62.8479 12.5415 63.2363 13.0933 63.6347 13.6855C64.2047 14.5274 64.7948 15.4478 65.3976 16.4395C65.3522 17.3028 64.7116 18.599 62.6487 18.599Z" stroke="#231F20" stroke-miterlimit="10" stroke-linecap="round" stroke-linejoin="round"/>
<path d="M62.6487 18.599L60.5303 18.1138C60.5303 18.1138 58.8834 12.8008 56.5128 11.7305" stroke="#231F20" stroke-miterlimit="10" stroke-linecap="round" stroke-linejoin="round"/>
<path d="M60.5303 18.1139C60.5303 18.1139 55.9958 18.9867 54.7248 22.195" stroke="#231F20" stroke-miterlimit="10" stroke-linecap="round" stroke-linejoin="round"/>
<path d="M72.6229 12.054C72.6229 12.054 74.0326 6.57922 78.1888 6.31999C82.3449 6.06075 83.2049 15.5857 83.2049 15.5857" stroke="#231F20" stroke-miterlimit="10" stroke-linecap="round" stroke-linejoin="round"/>
<path d="M76.7462 12.865C76.7462 12.865 76.7488 12.8412 76.7538 12.796C76.8068 12.3846 77.1144 10.2394 78.0299 9.53065C78.325 9.30234 78.6831 9.22148 79.1168 9.39747" stroke="#231F20" stroke-miterlimit="10" stroke-linecap="round" stroke-linejoin="round"/>
<path d="M80.1483 11.0171C80.1483 11.0171 80.6602 13.0766 80.8998 14.3395C80.8998 14.3443 80.9024 14.349 80.9024 14.3538" stroke="#231F20" stroke-miterlimit="10" stroke-linecap="round" stroke-linejoin="round"/>
<path d="M78.0526 9.55917C78.0526 9.55917 79.4245 10.7269 79.5632 13.6736" stroke="#231F20" stroke-miterlimit="10" stroke-linecap="round" stroke-linejoin="round"/>
<path d="M70.1161 43.7397C70.1161 41.9608 70.797 40.3103 71.9621 38.9475C72.2824 38.5717 72.638 38.2198 73.0289 37.8916C74.9557 36.2648 77.6793 35.2517 80.6981 35.2517C82.2213 35.2517 83.6714 35.5085 84.9803 35.9747" stroke="#231F20" stroke-miterlimit="10" stroke-linecap="round" stroke-linejoin="round"/>
<path d="M86.6473 36.7191C87.2097 37.0259 87.7317 37.3755 88.2109 37.7631C88.6598 38.1246 89.0658 38.5194 89.429 38.9428C90.4806 40.1747 91.1388 41.6374 91.2574 43.2189" stroke="#231F20" stroke-miterlimit="10" stroke-linecap="round" stroke-linejoin="round"/>
<path d="M84.9576 36.0318C84.9652 36.0318 84.9702 36.0318 84.9778 36.0318C85.6486 36.0365 86.2211 36.3243 86.6019 36.7548C87.1189 37.3374 87.2853 38.1841 86.8793 38.9547L85.1619 42.2153C84.8592 42.7932 84.3271 43.1523 83.7471 43.2831C82.8921 43.4781 81.9262 43.1761 81.4042 42.3627L79.3161 39.1021C78.451 37.7536 79.48 36.0318 81.152 36.0318H82.1986" stroke="#231F20" stroke-miterlimit="10" stroke-linecap="round" stroke-linejoin="round"/>
<path d="M83.7446 43.276C83.2351 43.1523 82.7635 42.8479 82.4508 42.3627L80.3627 39.1021C79.4976 37.7536 80.5291 36.0318 82.1986 36.0318H84.9576" stroke="#231F20" stroke-miterlimit="10" stroke-linecap="round" stroke-linejoin="round"/>
<path d="M71.2156 49.3097C71.2383 49.3097 71.488 49.3453 71.9066 49.3786C74.0099 49.5332 80.3324 49.5546 82.7282 44.0751C82.8291 43.8444 82.9249 43.6018 83.0107 43.3497" stroke="#231F20" stroke-miterlimit="10" stroke-linecap="round" stroke-linejoin="round"/>
<path d="M82.7131 44.0418C82.7131 44.0418 82.7181 44.0537 82.7282 44.0751C82.8921 44.439 84.4431 47.6782 87.7746 48.425C88.2613 48.532 88.7859 48.5891 89.3508 48.5748C89.9434 48.5605 90.5764 48.4678 91.2599 48.2799C91.2649 48.2775 91.2725 48.2775 91.2775 48.2751" stroke="#231F20" stroke-miterlimit="10" stroke-linecap="round" stroke-linejoin="round"/>
<path d="M71.9016 49.4405L78.0803 55.9094C78.2569 56.0806 78.4485 56.2305 78.6478 56.3613C80.282 57.4339 82.5693 57.2008 83.9135 55.7167L89.3533 48.6628" stroke="#231F20" stroke-miterlimit="10" stroke-linecap="round" stroke-linejoin="round"/>
<path d="M78.5343 56.3351C78.5721 56.3446 78.6099 56.3541 78.6478 56.3612C80.0424 56.6776 81.5808 56.2661 82.587 55.1555L87.7746 48.4249L87.7973 48.3964" stroke="#231F20" stroke-miterlimit="10" stroke-linecap="round" stroke-linejoin="round"/>
<path d="M59.7056 32.1409C59.9646 32.1409 60.1747 31.5414 60.1747 30.8019C60.1747 30.0624 59.9646 29.463 59.7056 29.463C59.4465 29.463 59.2365 30.0624 59.2365 30.8019C59.2365 31.5414 59.4465 32.1409 59.7056 32.1409Z" stroke="#231F20" stroke-miterlimit="10" stroke-linecap="round" stroke-linejoin="round"/>
<path d="M59.7056 29.463H60.6437C60.9035 29.463 61.1128 30.0623 61.1128 30.8019C61.1128 31.5416 60.9035 32.1409 60.6437 32.1409H59.7056" stroke="#231F20" stroke-miterlimit="10" stroke-linecap="round" stroke-linejoin="round"/>
<path d="M59.7056 36.1911C59.9646 36.1911 60.1747 35.5916 60.1747 34.8521C60.1747 34.1126 59.9646 33.5132 59.7056 33.5132C59.4465 33.5132 59.2365 34.1126 59.2365 34.8521C59.2365 35.5916 59.4465 36.1911 59.7056 36.1911Z" stroke="#231F20" stroke-miterlimit="10" stroke-linecap="round" stroke-linejoin="round"/>
<path d="M59.7056 33.5132H60.6437C60.9035 33.5132 61.1128 34.1125 61.1128 34.8521C61.1128 35.5918 60.9035 36.1911 60.6437 36.1911H59.7056" stroke="#231F20" stroke-miterlimit="10" stroke-linecap="round" stroke-linejoin="round"/>
<path d="M69.125 50.437C69.125 50.437 71.0794 49.8091 72.0554 47.7162" stroke="#231F20" stroke-miterlimit="10" stroke-linecap="round" stroke-linejoin="round"/>
<path d="M90.9673 47.1288C90.9673 47.1597 90.9724 47.74 91.2599 48.2799C91.4389 48.6152 91.729 48.9339 92.193 49.0956" stroke="#231F20" stroke-miterlimit="10" stroke-linecap="round" stroke-linejoin="round"/>
<path d="M64.9638 22.0332C64.9638 22.0332 68.4667 18.9225 73.4828 20.9321" stroke="#231F20" stroke-miterlimit="10" stroke-linecap="round" stroke-linejoin="round"/>
<path d="M82.9401 23.006H88.4379C88.4379 23.006 89.2474 23.0725 89.9712 23.7575C90.5487 24.3021 91.0733 25.2392 91.0935 26.8492" stroke="#231F20" stroke-miterlimit="10" stroke-linecap="round" stroke-linejoin="round"/>
<path d="M52.2054 113.521V112.082V84.1799V82.3867V76.9119L50.3745 78.2081V111.642V112.615" stroke="#231F20" stroke-miterlimit="10" stroke-linecap="round" stroke-linejoin="round"/>
<path d="M90.7227 61.8099C97.2974 63.5841 101.638 66.155 102.243 69.0446C102.291 69.2753 102.316 69.506 102.316 69.7414C102.316 72.8237 98.0666 75.3446 91.3229 77.2591" stroke="#231F20" stroke-miterlimit="10" stroke-linecap="round" stroke-linejoin="round"/>
<path d="M50.3745 78.2081C41.7142 76.3221 35.8078 73.3041 35.8078 69.7414C35.8078 66.0051 42.0471 62.7255 51.4312 60.8776C51.5068 60.8609 51.5825 60.8467 51.6581 60.8324" stroke="#231F20" stroke-miterlimit="10" stroke-linecap="round" stroke-linejoin="round"/>
<path d="M88.0671 62.9824C88.0772 62.9847 88.0873 62.9871 88.0974 62.9895C94.4274 64.6162 98.4423 67.0373 98.4423 69.7414C98.4423 70.9472 97.5874 72.0579 96.0843 73.0639C95.2445 73.6275 94.2004 74.1603 92.9899 74.6573C92.4603 74.8761 91.9004 75.0854 91.3103 75.2899C90.7303 75.4921 90.125 75.6871 89.492 75.875" stroke="#231F20" stroke-miterlimit="10" stroke-linecap="round" stroke-linejoin="round"/>
<path d="M52.2054 76.9119C50.609 76.5671 49.1211 76.1747 47.7668 75.7466C47.1287 75.542 46.5184 75.3304 45.9434 75.1092C44.3471 74.5004 43.0079 73.8273 41.9815 73.1043C40.5087 72.0721 39.684 70.9353 39.684 69.7414C39.684 66.5498 45.2751 63.7506 53.6656 62.1904C53.7791 62.169 53.89 62.15 54.0035 62.1286" stroke="#231F20" stroke-miterlimit="10" stroke-linecap="round" stroke-linejoin="round"/>
<path d="M87.6157 69.6725C87.6208 69.6725 87.6233 69.6748 87.6283 69.6748C91.2775 70.5738 94.1979 71.732 96.0793 73.0567" stroke="#231F20" stroke-miterlimit="10" stroke-linecap="round" stroke-linejoin="round"/>
<path d="M41.9538 73.1233C41.9638 73.1162 41.9714 73.1114 41.9815 73.1043C44.342 71.4134 48.3922 69.9888 53.489 69.028" stroke="#231F20" stroke-miterlimit="10" stroke-linecap="round" stroke-linejoin="round"/>
<path d="M35.8078 69.7414L32.9682 82.527C32.9682 82.527 33.4196 83.2905 34.2619 84.3559C35.9743 86.5225 39.2982 89.9401 43.7342 90.7464L41.1215 100.064L50.3745 111.642" stroke="#231F20" stroke-miterlimit="10" stroke-linecap="round" stroke-linejoin="round"/>
<path d="M102.271 69.0399L106.21 83.2191C106.21 83.2191 105.94 84.2822 105.123 85.928C103.953 88.292 101.648 91.8594 97.3932 95.1842L102.546 102.83L93.7516 139.244V174.999V182.203" stroke="#231F20" stroke-miterlimit="10" stroke-linecap="round" stroke-linejoin="round"/>
<path d="M89.5122 81.8516C89.5046 81.854 89.4996 81.8563 89.492 81.8587C85.0711 83.3642 77.9744 84.3416 69.9774 84.3416C62.9589 84.3416 56.6364 83.5901 52.2054 82.3867C52.1978 82.3843 52.1877 82.3819 52.1802 82.3796" stroke="#231F20" stroke-miterlimit="10" stroke-linecap="round" stroke-linejoin="round"/>
<path d="M87.4795 73.9581C88.9725 74.3505 90.2637 74.7929 91.3053 75.2757" stroke="#231F20" stroke-miterlimit="10" stroke-linecap="round" stroke-linejoin="round"/>
<path d="M47.7744 75.7252C49.174 74.9284 51.2244 74.2197 53.7564 73.6442" stroke="#231F20" stroke-miterlimit="10" stroke-linecap="round" stroke-linejoin="round"/>
<path d="M89.5122 83.7399C89.5046 83.7423 89.4996 83.7447 89.492 83.7447C84.5263 85.0932 77.6188 85.9303 69.9774 85.9303C63.1934 85.9303 56.987 85.2715 52.2054 84.1799C52.2004 84.1775 52.1928 84.1775 52.1877 84.1752" stroke="#231F20" stroke-miterlimit="10" stroke-linecap="round" stroke-linejoin="round"/>
<path d="M87.2399 72.9307C89.4718 73.4159 91.4137 73.9938 92.9824 74.6431" stroke="#231F20" stroke-miterlimit="10" stroke-linecap="round" stroke-linejoin="round"/>
<path d="M45.946 75.1044C47.9105 74.1436 50.6544 73.316 53.948 72.6786" stroke="#231F20" stroke-miterlimit="10" stroke-linecap="round" stroke-linejoin="round"/>
<path d="M69.4125 113.835C62.8479 113.799 56.8558 113.145 52.2054 112.082C52.1751 112.077 52.1474 112.07 52.1171 112.063" stroke="#231F20" stroke-miterlimit="10" stroke-linecap="round" stroke-linejoin="round"/>
<path d="M89.4441 111.661C86.3976 112.486 82.6198 113.119 78.3956 113.483" stroke="#231F20" stroke-miterlimit="10" stroke-linecap="round" stroke-linejoin="round"/>
<path d="M34.1585 84.4297L29.8586 96.7348" stroke="#231F20" stroke-miterlimit="10" stroke-linecap="round" stroke-linejoin="round"/>
<path d="M112.447 140.697L117.248 177.213L93.7515 174.999L91.3229 174.771L89.492 174.597L57.6603 171.598L89.492 175.111L91.3229 175.313V174.771V77.2592L89.492 75.875V81.8587V83.7447V111.661V174.597V175.111V178.509" stroke="#231F20" stroke-miterlimit="10" stroke-linecap="round" stroke-linejoin="round"/>
<path d="M105.249 85.9827L105.653 89.0411L109.153 115.659L109.284 116.653L109.292 116.719" stroke="#231F20" stroke-miterlimit="10" stroke-linecap="round" stroke-linejoin="round"/>
<path d="M152.031 103.354L141.792 107.613L141.517 108.607L137.194 110.265L135.885 110.767L129.47 113.228L124.622 115.062L124.615 115.064" stroke="#231F20" stroke-miterlimit="10" stroke-linecap="round" stroke-linejoin="round"/>
<path d="M172.61 87.1956C174.004 92.4064 169.046 97.1915 164.466 99.2772C162.219 100.3 159.77 101.135 157.69 101.763" stroke="#231F20" stroke-miterlimit="10" stroke-linecap="round" stroke-linejoin="round"/>
<path d="M135.923 110.852V122.889C135.923 125.831 133.394 128.218 130.272 128.218C128.71 128.218 127.298 127.622 126.277 126.656C125.255 125.693 124.622 124.361 124.622 122.889V115.062V95.7788C124.622 92.8345 127.152 90.4491 130.272 90.4491L131.762 90.0543L133.134 89.6476L138.266 88.1326L138.997 88.3491L158.968 80.9621C158.968 80.9621 167.134 78.5791 171.331 84.539" stroke="#231F20" stroke-miterlimit="10" stroke-linecap="round" stroke-linejoin="round"/>
<path d="M138.997 88.349C138.997 88.349 134.876 96.5113 141.792 107.613" stroke="#231F20" stroke-miterlimit="10" stroke-linecap="round" stroke-linejoin="round"/>
<path d="M161.213 93.7786C161.208 93.7882 161.203 93.7953 161.198 93.8048C159.869 95.9524 157.307 97.3009 154.507 97.063C150.654 96.7348 147.809 93.5218 148.157 89.8878C148.505 86.2514 151.912 83.5711 155.766 83.8969C157.884 84.0777 159.697 85.1289 160.845 86.6438C160.845 86.6462 160.847 86.6462 160.847 86.6486" stroke="#231F20" stroke-miterlimit="10" stroke-linecap="round" stroke-linejoin="round"/>
<path d="M168.078 91.2862C168.141 90.2564 167.795 89.2766 167.167 88.6511C166.875 88.3585 166.519 88.1421 166.116 88.0351L160.845 86.6438L159.238 86.2205C157.73 85.8209 156.207 87.1218 155.957 89.0221L155.867 89.7165C155.635 91.4717 156.588 93.0628 158.005 93.2911L161.198 93.8048L161.77 93.8952L164.976 94.4113C165.036 94.4208 165.097 94.4279 165.157 94.4327C166.136 94.5064 167.084 93.9023 167.626 92.8892" stroke="#231F20" stroke-miterlimit="10" stroke-linecap="round" stroke-linejoin="round"/>
<path d="M168.065 91.2957L167.548 90.6726C167.137 90.1779 166.312 90.2802 166.05 90.8557L165.841 91.3171C165.644 91.7523 165.876 92.2589 166.35 92.4206L167.639 92.8582L170.052 93.6811L168.209 91.4646L168.065 91.2957Z" stroke="#231F20" stroke-miterlimit="10" stroke-linecap="round" stroke-linejoin="round"/>
<path d="M165.157 94.4493L157.685 101.758L146.611 112.586C146.134 113.052 145.365 113.112 144.813 112.724L144.684 112.634C144.026 112.17 143.948 111.266 144.52 110.71L152.053 103.373L161.768 93.9095" stroke="#231F20" stroke-miterlimit="10" stroke-linecap="round" stroke-linejoin="round"/>
<path d="M167.142 88.6749L167.167 88.6511L171.361 84.5652L199.682 56.9772C200.177 56.4968 200.981 56.454 201.531 56.8821C201.859 57.1366 202.025 57.5028 202.025 57.8715C202.025 58.1925 201.899 58.5136 201.644 58.7657L172.592 87.1789L168.209 91.4646" stroke="#231F20" stroke-miterlimit="10" stroke-linecap="round" stroke-linejoin="round"/>
<path d="M78.3602 119.331V113.483V105.551" stroke="#231F20" stroke-miterlimit="10" stroke-linecap="round" stroke-linejoin="round"/>
<path d="M69.4301 138.143V154.988C69.4301 157.314 71.4275 159.2 73.8939 159.2C75.1271 159.2 76.2443 158.729 77.0514 157.966C77.8609 157.205 78.3602 156.151 78.3602 154.988V132.699" stroke="#231F20" stroke-miterlimit="10" stroke-linecap="round" stroke-linejoin="round"/>
<path d="M69.4301 105.682V113.835V116.639V116.696" stroke="#231F20" stroke-miterlimit="10" stroke-linecap="round" stroke-linejoin="round"/>
<path d="M75.9569 100.561H78.0173C79.4775 100.561 80.6628 101.679 80.6628 103.056C80.6628 103.746 80.3652 104.369 79.8885 104.821C79.485 105.201 78.9504 105.458 78.3577 105.53C78.2468 105.544 78.1333 105.551 78.0173 105.551H76.7336" stroke="#231F20" stroke-miterlimit="10" stroke-linecap="round" stroke-linejoin="round"/>
<path d="M72.5901 105.551H69.9774C69.7958 105.551 69.6167 105.534 69.4452 105.501C68.2398 105.268 67.3344 104.264 67.3344 103.056C67.3344 102.367 67.6295 101.743 68.1086 101.292C68.5878 100.84 69.2485 100.561 69.9774 100.561H74.1814H74.2041" stroke="#231F20" stroke-miterlimit="10" stroke-linecap="round" stroke-linejoin="round"/>
<path d="M68.8803 101.891H78.6351" stroke="#231F20" stroke-miterlimit="10" stroke-linecap="round" stroke-linejoin="round"/>
<path d="M77.2153 134.19V154.46C77.2153 156.189 75.7299 157.593 73.8939 157.593C72.9759 157.593 72.1487 157.243 71.546 156.675C70.9458 156.108 70.5751 155.326 70.5751 154.46V138.055" stroke="#231F20" stroke-miterlimit="10" stroke-linecap="round" stroke-linejoin="round"/>
<path d="M70.5751 116.589V111.392L77.2153 111.297V118.425V118.489" stroke="#231F20" stroke-miterlimit="10" stroke-linecap="round" stroke-linejoin="round"/>
<path d="M70.6659 98.0358C70.6659 98.5732 70.2043 99.0061 69.6344 99.0061C69.067 99.0061 68.6054 98.5732 68.6054 98.0358C68.6054 97.4983 69.067 97.063 69.6344 97.063C70.2043 97.063 70.6659 97.4983 70.6659 98.0358Z" stroke="#231F20" stroke-miterlimit="10" stroke-linecap="round" stroke-linejoin="round"/>
<path d="M75.9442 100.564C75.9543 100.604 75.9568 100.647 75.9568 100.692C75.9568 101.156 75.5559 101.534 75.0641 101.534C74.5698 101.534 74.1688 101.156 74.1688 100.692C74.1688 100.647 74.1713 100.604 74.1814 100.561C74.247 100.157 74.6177 99.8504 75.0641 99.8504C75.5105 99.8504 75.8812 100.16 75.9442 100.564Z" stroke="#231F20" stroke-miterlimit="10" stroke-linecap="round" stroke-linejoin="round"/>
<path d="M77.6743 95.7669C77.6743 96.5898 76.9656 97.2581 76.093 97.2581C75.2205 97.2581 74.5143 96.5898 74.5143 95.7669C74.5143 94.944 75.2205 94.2781 76.093 94.2781C76.9656 94.2781 77.6743 94.944 77.6743 95.7669Z" stroke="#231F20" stroke-miterlimit="10" stroke-linecap="round" stroke-linejoin="round"/>
<path d="M71.4224 92.14C71.4224 92.6038 71.0215 92.9819 70.5272 92.9819C70.0354 92.9819 69.6344 92.6038 69.6344 92.14C69.6344 91.6739 70.0354 91.2957 70.5272 91.2957C71.0215 91.2957 71.4224 91.6739 71.4224 92.14Z" stroke="#231F20" stroke-miterlimit="10" stroke-linecap="round" stroke-linejoin="round"/>
<path d="M77.1245 89.6761C77.1245 90.0709 76.7866 90.3896 76.3679 90.3896C75.9518 90.3896 75.6114 90.0709 75.6114 89.6761C75.6114 89.2837 75.9518 88.965 76.3679 88.965C76.7866 88.965 77.1245 89.2837 77.1245 89.6761Z" stroke="#231F20" stroke-miterlimit="10" stroke-linecap="round" stroke-linejoin="round"/>
<path d="M73.208 88.8984C73.208 89.1148 73.0238 89.2885 72.7944 89.2885C72.5674 89.2885 72.3833 89.1148 72.3833 88.8984C72.3833 88.6844 72.5674 88.5108 72.7944 88.5108C73.0238 88.5108 73.208 88.6844 73.208 88.8984Z" stroke="#231F20" stroke-miterlimit="10" stroke-linecap="round" stroke-linejoin="round"/>
<path d="M79.1849 98.8134C79.1849 99.0275 79.0008 99.2011 78.7738 99.2011C78.5443 99.2011 78.3602 99.0275 78.3602 98.8134C78.3602 98.597 78.5443 98.4234 78.7738 98.4234C79.0008 98.4234 79.1849 98.597 79.1849 98.8134Z" stroke="#231F20" stroke-miterlimit="10" stroke-linecap="round" stroke-linejoin="round"/>
<path d="M67.0923 99.0061C67.0923 99.3295 66.8149 99.5911 66.4744 99.5911C66.134 99.5911 65.8566 99.3295 65.8566 99.0061C65.8566 98.685 66.134 98.4234 66.4744 98.4234C66.8149 98.4234 67.0923 98.685 67.0923 99.0061Z" stroke="#231F20" stroke-miterlimit="10" stroke-linecap="round" stroke-linejoin="round"/>
<path d="M23.6774 110.415C23.342 112.346 23.1326 114.313 23.0797 116.194C23.0217 118.12 23.1326 119.959 23.4403 121.576C25.0392 129.952 38.1709 148.381 53.199 155.2C53.2495 155.224 53.2999 155.245 53.3503 155.269" stroke="#231F20" stroke-miterlimit="10" stroke-linecap="round" stroke-linejoin="round"/>
<path d="M25.7605 102.745C26.9256 99.7576 28.3682 97.4959 29.8712 96.7562C29.9872 96.6968 30.1032 96.6468 30.2193 96.6088C34.6175 95.1414 38.5567 102.053 38.5567 102.053C41.7646 107.047 46.5689 110.486 50.3745 112.617C51.0075 112.971 51.6127 113.288 52.1776 113.571C52.7476 113.854 53.2747 114.103 53.7513 114.317C53.7513 114.317 56.0286 115.155 57.1887 115.314C57.2669 115.323 57.34 115.331 57.4056 115.335" stroke="#231F20" stroke-miterlimit="10" stroke-linecap="round" stroke-linejoin="round"/>
<path d="M56.2152 116.679L60.4319 116.665L62.626 116.66L69.4301 116.639L70.5751 116.634L71.3972 116.632C73.503 116.632 75.5382 117.269 77.2153 118.425C77.6163 118.701 77.9946 119.005 78.3501 119.34C78.3955 119.381 78.4384 119.421 78.4813 119.464C80.3147 121.252 81.2504 123.583 81.2504 125.926C81.2504 127.85 80.6174 129.783 79.3337 131.429L78.3476 132.692L77.1901 134.174L77.0463 134.359C75.4827 136.364 73.1449 137.679 70.5725 138.041C70.1968 138.095 69.8134 138.129 69.4301 138.141C69.3242 138.143 69.2157 138.145 69.1098 138.145H63.153H62.626H61.8643H50.5813" stroke="#231F20" stroke-miterlimit="10" stroke-linecap="round" stroke-linejoin="round"/>
<path d="M25.7832 102.773C26.3658 102.331 26.9937 102.131 27.5939 102.252C29.1752 102.578 29.9519 105.033 29.329 107.737C28.7061 110.441 26.9181 112.37 25.3343 112.046C24.6004 111.894 24.0405 111.285 23.7127 110.403C23.3344 109.387 23.2663 108.01 23.5992 106.562C23.9876 104.88 24.8249 103.501 25.7832 102.773Z" stroke="#231F20" stroke-miterlimit="10" stroke-linecap="round" stroke-linejoin="round"/>
<path d="M62.626 116.76C62.626 116.76 58.9843 119.352 58.9843 126.675C58.9843 133.995 62.626 138.079 62.626 138.079" stroke="#231F20" stroke-miterlimit="10" stroke-linecap="round" stroke-linejoin="round"/>
<path d="M63.153 138.143V138.145V149.288C63.153 152.465 60.7497 155.112 57.567 155.704C57.1307 155.787 56.6767 155.83 56.2152 155.83C55.8748 155.83 55.5419 155.806 55.2166 155.761C54.5054 155.666 53.8295 155.469 53.2066 155.186C52.4979 154.862 51.8573 154.432 51.3076 153.913C50.0516 152.729 49.2749 151.093 49.2749 149.288V121.814C49.2749 118.201 52.3819 115.271 56.2152 115.271C56.5456 115.271 56.8684 115.292 57.1862 115.338C57.6326 115.395 58.0638 115.492 58.4799 115.628C59.1886 115.859 59.8468 116.194 60.4319 116.617" stroke="#231F20" stroke-miterlimit="10" stroke-linecap="round" stroke-linejoin="round"/>
<path d="M61.8643 138.174V149.119C61.8643 152.063 59.3349 154.448 56.2152 154.448C54.6542 154.448 53.2419 153.851 52.218 152.888C51.1966 151.923 50.5636 150.591 50.5636 149.119V138.145V122.009C50.5636 119.067 53.0931 116.679 56.2152 116.679" stroke="#231F20" stroke-miterlimit="10" stroke-linecap="round" stroke-linejoin="round"/>
<path d="M137.212 110.303V123.055C137.212 126.67 134.105 129.6 130.272 129.6C128.357 129.6 126.622 128.868 125.366 127.683C124.11 126.499 123.334 124.863 123.334 123.055V95.5838C123.334 92.14 126.156 89.317 129.737 89.0602C129.913 89.0459 130.092 89.0388 130.272 89.0388C130.778 89.0388 131.275 89.0911 131.752 89.1886C132.231 89.2861 132.69 89.4312 133.124 89.6167" stroke="#231F20" stroke-miterlimit="10" stroke-linecap="round" stroke-linejoin="round"/>
<path d="M55.2065 155.83V173.907" stroke="#231F20" stroke-miterlimit="10" stroke-linecap="round" stroke-linejoin="round"/>
<path d="M57.5897 155.83V171.598V173.908L55.2216 174.093L1.34071 178.314L23.057 116.194" stroke="#231F20" stroke-miterlimit="10" stroke-linecap="round" stroke-linejoin="round"/>
<path d="M94.3013 78.9001C94.3013 79.3996 93.8701 79.8063 93.338 79.8063C92.8084 79.8063 92.3771 79.3996 92.3771 78.9001C92.3771 78.3983 92.8084 77.9916 93.338 77.9916C93.8701 77.9916 94.3013 78.3983 94.3013 78.9001Z" stroke="#231F20" stroke-miterlimit="10" stroke-linecap="round" stroke-linejoin="round"/>
<path d="M49.1387 79.8943C49.1387 80.5364 48.8512 81.0596 48.4956 81.0596C48.1426 81.0596 47.8551 80.5364 47.8551 79.8943C47.8551 79.2498 48.1426 78.7266 48.4956 78.7266C48.8512 78.7266 49.1387 79.2498 49.1387 79.8943Z" stroke="#231F20" stroke-miterlimit="10" stroke-linecap="round" stroke-linejoin="round"/>
<path d="M136.364 91.4788C136.364 91.9283 136.087 92.2898 135.747 92.2898C135.404 92.2898 135.129 91.9283 135.129 91.4788C135.129 91.0317 135.404 90.6702 135.747 90.6702C136.087 90.6702 136.364 91.0317 136.364 91.4788Z" stroke="#231F20" stroke-miterlimit="10" stroke-linecap="round" stroke-linejoin="round"/>
<path d="M136.226 96.987C136.226 97.4341 135.951 97.798 135.608 97.798C135.267 97.798 134.99 97.4341 134.99 96.987C134.99 96.5398 135.267 96.1783 135.608 96.1783C135.951 96.1783 136.226 96.5398 136.226 96.987Z" stroke="#231F20" stroke-miterlimit="10" stroke-linecap="round" stroke-linejoin="round"/>
<path d="M137.189 102.593C137.189 103.04 136.912 103.401 136.571 103.401C136.228 103.401 135.951 103.04 135.951 102.593C135.951 102.145 136.228 101.782 136.571 101.782C136.912 101.782 137.189 102.145 137.189 102.593Z" stroke="#231F20" stroke-miterlimit="10" stroke-linecap="round" stroke-linejoin="round"/>
<path d="M139.353 107.872C139.353 108.319 139.076 108.683 138.735 108.683C138.392 108.683 138.117 108.319 138.117 107.872C138.117 107.425 138.392 107.064 138.735 107.064C139.076 107.064 139.353 107.425 139.353 107.872Z" stroke="#231F20" stroke-miterlimit="10" stroke-linecap="round" stroke-linejoin="round"/>
<path d="M59.7182 119.067C59.5543 119.466 59.1356 119.688 58.78 119.559C58.427 119.431 58.2731 119.003 58.4371 118.601C58.5985 118.201 59.0196 117.98 59.3727 118.108C59.7283 118.237 59.8821 118.665 59.7182 119.067Z" stroke="#231F20" stroke-miterlimit="10" stroke-linecap="round" stroke-linejoin="round"/>
<path d="M58.1319 124.998C58.1773 125.426 57.9074 125.802 57.5317 125.835C57.1534 125.871 56.8104 125.555 56.765 125.127C56.7196 124.699 56.9895 124.325 57.3678 124.29C57.746 124.254 58.089 124.573 58.1319 124.998Z" stroke="#231F20" stroke-miterlimit="10" stroke-linecap="round" stroke-linejoin="round"/>
<path d="M58.2706 130.354C58.316 130.782 58.0462 131.158 57.6679 131.194C57.2896 131.227 56.9491 130.911 56.9037 130.483C56.8583 130.057 57.1282 129.681 57.5065 129.645C57.8822 129.61 58.2252 129.928 58.2706 130.354Z" stroke="#231F20" stroke-miterlimit="10" stroke-linecap="round" stroke-linejoin="round"/>
<path d="M59.7812 135.475C59.8266 135.9 59.5568 136.276 59.181 136.312C58.8027 136.347 58.4598 136.029 58.4144 135.601C58.369 135.175 58.6388 134.799 59.0171 134.763C59.3954 134.728 59.7358 135.046 59.7812 135.475Z" stroke="#231F20" stroke-miterlimit="10" stroke-linecap="round" stroke-linejoin="round"/>
<path d="M55.6528 42.8954C55.937 42.8954 56.1673 42.6782 56.1673 42.4103C56.1673 42.1423 55.937 41.9251 55.6528 41.9251C55.3687 41.9251 55.1384 42.1423 55.1384 42.4103C55.1384 42.6782 55.3687 42.8954 55.6528 42.8954Z" stroke="#231F20" stroke-miterlimit="10" stroke-linecap="round" stroke-linejoin="round"/>
<path d="M53.3176 60.0999C53.3176 60.3663 53.0855 60.5851 52.8031 60.5851C52.5181 60.5851 52.2861 60.3663 52.2861 60.0999C52.2861 59.8312 52.5181 59.6124 52.8031 59.6124C53.0855 59.6124 53.3176 59.8312 53.3176 60.0999Z" stroke="#231F20" stroke-miterlimit="10" stroke-linecap="round" stroke-linejoin="round"/>
<path d="M98.9038 52.7772C98.9038 53.046 98.6743 53.2624 98.3894 53.2624C98.1044 53.2624 97.8724 53.046 97.8724 52.7772C97.8724 52.5085 98.1044 52.2921 98.3894 52.2921C98.6743 52.2921 98.9038 52.5085 98.9038 52.7772Z" stroke="#231F20" stroke-miterlimit="10" stroke-linecap="round" stroke-linejoin="round"/>
<path d="M97.9077 43.2855C97.9077 43.5542 97.6782 43.7707 97.3932 43.7707C97.1082 43.7707 96.8762 43.5542 96.8762 43.2855C96.8762 43.0167 97.1082 42.7979 97.3932 42.7979C97.6782 42.7979 97.9077 43.0167 97.9077 43.2855Z" stroke="#231F20" stroke-miterlimit="10" stroke-linecap="round" stroke-linejoin="round"/>
<path d="M109.14 115.659H109.153H111.614L111.922 122.244L112.268 129.603L112.782 140.605H112.447H100.414L100.467 122.268L100.485 116.653H109.284H110.653" stroke="#231F20" stroke-miterlimit="10" stroke-linecap="round" stroke-linejoin="round"/>
<path d="M100.44 122.268H100.467H111.339" stroke="#231F20" stroke-miterlimit="10" stroke-linecap="round" stroke-linejoin="round" stroke-dasharray="6 6"/>
<path d="M50.2408 22.8846L50.2307 22.8918L49.686 23.2652L46.241 25.6316L46.0368 25.3699L44.9902 24.0334L43.8654 22.6016L43.6283 22.2972L51.0176 17.2244L51.0327 17.2125" stroke="#231F20" stroke-miterlimit="10" stroke-linecap="round" stroke-linejoin="round"/>
<path d="M61.0851 10.3084L61.1103 10.2917L71.6519 3.05225L71.1778 4.63618L73.0138 4.78839L72.5674 6.40799L74.2646 6.38659L65.7481 12.2371L63.6473 13.6784" stroke="#231F20" stroke-miterlimit="10" stroke-linecap="round" stroke-linejoin="round"/>
<path d="M71.6519 3.05223L76.8899 1.20669L78.3905 0.676331L78.8621 1.27566L76.8143 3.55404L74.2646 6.38657" stroke="#231F20" stroke-miterlimit="10" stroke-linecap="round" stroke-linejoin="round"/>
<path d="M76.8919 1.09015L76.8894 1.20668L76.8143 3.55404L76.8093 3.67295" stroke="#231F20" stroke-miterlimit="10" stroke-linecap="round" stroke-linejoin="round"/>
<path d="M50.4526 20.2828L45.0255 24.0096L44.9902 24.0334L44.97 24.0476" stroke="#231F20" stroke-miterlimit="10" stroke-linecap="round" stroke-linejoin="round"/>
<path d="M73.0138 4.78836L62.5301 11.9874" stroke="#231F20" stroke-miterlimit="10" stroke-linecap="round" stroke-linejoin="round"/>
<path d="M42.158 27.86C42.1278 27.8291 42.1 27.7982 42.0748 27.7649L40.2691 25.4627C40.2212 25.4009 40.1808 25.3367 40.1506 25.2701C39.9539 24.8467 40.085 24.3378 40.4961 24.05L42.5868 22.5945C42.9751 22.321 43.4972 22.3353 43.8654 22.6016C43.9461 22.6563 44.0192 22.7253 44.0823 22.8062L45.0255 24.0096L45.888 25.1083C45.9535 25.1916 46.0014 25.2796 46.0368 25.3699C46.1881 25.7766 46.0519 26.2475 45.6635 26.5187L43.5703 27.9765C43.1315 28.2833 42.5237 28.2239 42.158 27.86Z" stroke="#231F20" stroke-miterlimit="10" stroke-linecap="round" stroke-linejoin="round"/>
<path d="M40.1581 25.2653L40.1506 25.2701L38.0448 26.7398C37.2907 27.2654 37.1293 28.2691 37.6892 28.9826C38.0221 29.4083 38.5366 29.6318 39.0561 29.6318C39.4091 29.6318 39.7622 29.5296 40.0674 29.3179L42.153 27.8648" stroke="#231F20" stroke-miterlimit="10" stroke-linecap="round" stroke-linejoin="round"/>
<path d="M129.734 89.0292H105.753" stroke="#231F20" stroke-miterlimit="10" stroke-linecap="round" stroke-linejoin="round"/>
<path d="M130.272 129.6H112.351" stroke="#231F20" stroke-miterlimit="10" stroke-linecap="round" stroke-linejoin="round"/>
<path d="M202.025 57.8715C202.025 58.1925 201.899 58.5136 201.644 58.7657L172.592 87.1789L168.209 91.4646L168.065 91.2957L168.078 91.2862C168.141 90.2564 167.795 89.2766 167.167 88.6511L171.361 84.5652L199.682 56.9772C200.177 56.4968 200.981 56.454 201.531 56.8821C201.859 57.1366 202.025 57.5028 202.025 57.8715Z" fill="#FFE139"/>
<path d="M172.61 87.1956C174.004 92.4064 169.046 97.1915 164.466 99.2772C162.219 100.3 159.77 101.135 157.69 101.763L157.685 101.758L165.157 94.4493V94.4327C166.136 94.5064 167.084 93.9023 167.626 92.8892L167.639 92.8583L170.052 93.6811L168.209 91.4646L172.592 87.179L172.61 87.1956Z" fill="#F287B1"/>
<path d="M171.361 84.5652L167.167 88.6511C166.875 88.3586 166.519 88.1421 166.116 88.0351L160.845 86.6438C159.697 85.1289 157.884 84.0777 155.766 83.8969C151.912 83.5711 148.505 86.2514 148.157 89.8878C147.809 93.5218 150.654 96.7348 154.507 97.063C157.307 97.3009 159.869 95.9524 161.198 93.8048L161.77 93.8952L161.768 93.9094L152.053 103.373L152.031 103.354L141.792 107.613C134.877 96.5113 138.997 88.349 138.997 88.349L158.968 80.9621C158.968 80.9621 167.134 78.5791 171.331 84.539L171.361 84.5652Z" fill="#F287B1"/>
<path d="M168.209 91.4646L170.052 93.6811L167.639 92.8582L166.35 92.4206C165.876 92.2589 165.644 91.7523 165.841 91.3171L166.05 90.8557C166.312 90.2802 167.137 90.1779 167.548 90.6726L168.065 91.2957L168.209 91.4646Z" fill="#29A3FF"/>
<path d="M167.167 88.6511C167.795 89.2766 168.141 90.2564 168.078 91.2862L168.065 91.2957L167.548 90.6726C167.137 90.1779 166.312 90.2802 166.05 90.8557L165.841 91.3171C165.644 91.7523 165.876 92.2589 166.35 92.4206L167.639 92.8582L167.626 92.8892C167.084 93.9023 166.136 94.5064 165.157 94.4327C165.097 94.4279 165.036 94.4208 164.976 94.4113L161.77 93.8952L161.198 93.8048L158.005 93.2911C156.588 93.0628 155.635 91.4717 155.867 89.7165L155.957 89.0221C156.207 87.1218 157.73 85.8209 159.238 86.2205L160.845 86.6438L166.116 88.0351C166.519 88.1421 166.875 88.3585 167.167 88.6511Z" fill="#F287B1"/>
<path d="M165.157 94.4326V94.4493L157.685 101.758L146.611 112.586C146.134 113.052 145.365 113.112 144.813 112.724L144.684 112.634C144.026 112.17 143.948 111.266 144.52 110.71L152.053 103.373L161.768 93.9094L161.77 93.8951L164.976 94.4112C165.036 94.4207 165.097 94.4279 165.157 94.4326Z" fill="#FFE139"/>
<path d="M158.005 93.2911L161.198 93.8048C159.869 95.9524 157.307 97.3009 154.507 97.063C150.654 96.7348 147.809 93.5218 148.157 89.8878C148.505 86.2514 151.912 83.5711 155.766 83.8969C157.884 84.0777 159.697 85.1289 160.845 86.6438L159.238 86.2205C157.73 85.8209 156.207 87.1218 155.957 89.0221L155.867 89.7166C155.634 91.4717 156.588 93.0628 158.005 93.2911Z" fill="#F287B1"/>
<path d="M141.792 107.613L141.517 108.607L137.194 110.265L135.885 110.767L129.47 113.228L124.622 115.062V95.7788C124.622 92.8344 127.152 90.449 130.272 90.449L131.762 90.0542L133.134 89.6476L138.266 88.1326L138.997 88.349C138.997 88.349 134.877 96.5113 141.792 107.613ZM139.353 107.872C139.353 107.425 139.076 107.064 138.735 107.064C138.392 107.064 138.117 107.425 138.117 107.872C138.117 108.319 138.392 108.683 138.735 108.683C139.076 108.683 139.353 108.319 139.353 107.872ZM137.189 102.593C137.189 102.145 136.912 101.782 136.571 101.782C136.228 101.782 135.951 102.145 135.951 102.593C135.951 103.04 136.228 103.401 136.571 103.401C136.912 103.401 137.189 103.04 137.189 102.593ZM136.364 91.4788C136.364 91.0317 136.087 90.6702 135.747 90.6702C135.404 90.6702 135.129 91.0317 135.129 91.4788C135.129 91.9283 135.404 92.2898 135.747 92.2898C136.087 92.2898 136.364 91.9283 136.364 91.4788ZM136.226 96.9869C136.226 96.5398 135.951 96.1783 135.608 96.1783C135.267 96.1783 134.99 96.5398 134.99 96.9869C134.99 97.434 135.267 97.7979 135.608 97.7979C135.951 97.7979 136.226 97.434 136.226 96.9869Z" fill="#F287B1"/>
<path d="M138.735 107.064C139.076 107.064 139.353 107.425 139.353 107.872C139.353 108.319 139.076 108.683 138.735 108.683C138.392 108.683 138.117 108.319 138.117 107.872C138.117 107.425 138.392 107.064 138.735 107.064Z" fill="#DF7588"/>
<path d="M124.622 115.062V122.889C124.622 124.361 125.255 125.693 126.277 126.656C127.298 127.622 128.71 128.218 130.272 128.218C133.394 128.218 135.923 125.831 135.923 122.889V110.852L135.885 110.767L137.194 110.265L137.212 110.303V123.055C137.212 126.67 134.105 129.6 130.272 129.6C128.357 129.6 126.622 128.868 125.366 127.683C124.11 126.499 123.334 124.863 123.334 123.055V95.5838C123.334 92.14 126.156 89.317 129.737 89.0602C129.913 89.0459 130.092 89.0388 130.272 89.0388C130.778 89.0388 131.275 89.0911 131.752 89.1886C132.231 89.2861 132.69 89.4312 133.124 89.6167L133.134 89.6476L131.762 90.0543L130.272 90.4491C127.152 90.4491 124.622 92.8345 124.622 95.7788V115.062V115.062Z" fill="#A28DDE"/>
<path d="M136.571 101.782C136.912 101.782 137.189 102.145 137.189 102.593C137.189 103.04 136.912 103.401 136.571 103.401C136.228 103.401 135.951 103.04 135.951 102.593C135.951 102.145 136.228 101.782 136.571 101.782Z" fill="#DF7588"/>
<path d="M135.747 90.6702C136.087 90.6702 136.364 91.0317 136.364 91.4788C136.364 91.9283 136.087 92.2898 135.747 92.2898C135.404 92.2898 135.129 91.9283 135.129 91.4788C135.129 91.0317 135.404 90.6702 135.747 90.6702Z" fill="#DF7588"/>
<path d="M135.608 96.1783C135.951 96.1783 136.226 96.5398 136.226 96.987C136.226 97.4341 135.951 97.798 135.608 97.798C135.267 97.798 134.99 97.4341 134.99 96.987C134.99 96.5398 135.267 96.1783 135.608 96.1783Z" fill="#DF7588"/>
<path d="M135.923 110.852V122.889C135.923 125.831 133.394 128.218 130.271 128.218C128.71 128.218 127.298 127.622 126.277 126.656C125.255 125.693 124.622 124.361 124.622 122.889V115.062L129.47 113.228L135.885 110.767L135.923 110.852Z" fill="#231F20"/>
<path d="M130.272 129.6H112.351L112.268 129.603L111.922 122.244L111.614 115.659H109.153L105.652 89.0411L105.753 89.0292H129.734L129.737 89.0602C126.156 89.317 123.334 92.14 123.334 95.5838V123.055C123.334 124.863 124.11 126.499 125.366 127.683C126.622 128.868 128.357 129.6 130.272 129.6Z" fill="#DACDFE"/>
<path d="M100.467 122.268L100.414 140.604H112.447V140.697L117.248 177.213L93.7516 174.999V139.244L102.545 102.83L97.3932 95.1842C101.648 91.8594 103.953 88.292 105.123 85.9279L105.249 85.9827L105.653 89.0411L109.153 115.659L109.284 116.653H100.485L100.467 122.268Z" fill="#DACDFE"/>
<path d="M112.268 129.603L112.782 140.605H112.447H100.414L100.467 122.268H111.339L111.922 122.244L112.268 129.603Z" fill="#A28DDE"/>
<path d="M109.284 116.653L109.153 115.659H111.614L111.922 122.244L111.339 122.268H100.467L100.485 116.653H109.284Z" fill="#A28DDE"/>
<path d="M102.271 69.0399L106.21 83.2191C106.21 83.2191 105.94 84.2822 105.123 85.928C103.953 88.292 101.648 91.8594 97.3932 95.1842L102.546 102.83L93.7515 139.244V174.999L91.3229 174.771V77.2592C98.0666 75.3447 102.316 72.8237 102.316 69.7414C102.316 69.506 102.291 69.2753 102.243 69.0446L102.271 69.0399ZM94.3013 78.9002C94.3013 78.3984 93.8701 77.9917 93.3379 77.9917C92.8083 77.9917 92.3771 78.3984 92.3771 78.9002C92.3771 79.3996 92.8083 79.8063 93.3379 79.8063C93.8701 79.8063 94.3013 79.3996 94.3013 78.9002Z" fill="#DACDFE"/>
<path d="M102.243 69.0446C102.291 69.2753 102.316 69.506 102.316 69.7414C102.316 72.8236 98.0666 75.3446 91.3229 77.2591L89.492 75.875C90.125 75.6871 90.7303 75.4921 91.3103 75.2899C91.9005 75.0854 92.4603 74.8761 92.9899 74.6573C94.2005 74.1602 95.2445 73.6275 96.0843 73.0639C97.5874 72.0578 98.4423 70.9472 98.4423 69.7414C98.4423 67.0373 94.4274 64.6162 88.0974 62.9895C89.0583 62.6113 89.9308 62.207 90.7177 61.8004L90.7227 61.8099C97.2974 63.5841 101.638 66.155 102.243 69.0446Z" fill="#DACDFE"/>
<path d="M100.071 40.8882C104.27 50.2919 97.0275 56.8987 96.3643 57.4767C97.0528 55.4123 99.837 45.571 92.8588 38.8144L92.0568 38.2531L91.9005 38.2103C92.1022 37.8416 92.1022 37.4754 92.1022 37.4754C92.1022 37.4754 92.1022 35.7963 92.1022 33.7272C92.1022 33.7272 97.9203 36.1364 100.071 40.8882ZM98.9038 52.7772C98.9038 52.5085 98.6744 52.292 98.3894 52.292C98.1044 52.292 97.8724 52.5085 97.8724 52.7772C97.8724 53.0459 98.1044 53.2624 98.3894 53.2624C98.6744 53.2624 98.9038 53.0459 98.9038 52.7772ZM97.9077 43.2855C97.9077 43.0168 97.6782 42.798 97.3932 42.798C97.1082 42.798 96.8762 43.0168 96.8762 43.2855C96.8762 43.5543 97.1082 43.7707 97.3932 43.7707C97.6782 43.7707 97.9077 43.5543 97.9077 43.2855Z" fill="#F287B1"/>
<path d="M98.3894 52.2921C98.6743 52.2921 98.9038 52.5085 98.9038 52.7772C98.9038 53.046 98.6743 53.2624 98.3894 53.2624C98.1044 53.2624 97.8724 53.046 97.8724 52.7772C97.8724 52.5085 98.1044 52.2921 98.3894 52.2921Z" fill="#DF7588"/>
<path d="M97.3932 42.7979C97.6782 42.7979 97.9077 43.0167 97.9077 43.2855C97.9077 43.5542 97.6782 43.7707 97.3932 43.7707C97.1082 43.7707 96.8762 43.5542 96.8762 43.2855C96.8762 43.0167 97.1082 42.7979 97.3932 42.7979Z" fill="#DF7588"/>
<path d="M82.7282 44.0751C80.3324 49.5546 74.0099 49.5332 71.9066 49.3786L71.9016 49.4405L78.0803 55.9094C78.2569 56.0806 78.4485 56.2304 78.6478 56.3612C80.282 57.4338 82.5693 57.2008 83.9135 55.7167L89.3533 48.6628L89.3508 48.5748C88.7859 48.589 88.2613 48.532 87.7746 48.4249C84.4431 47.6782 82.8921 44.439 82.7282 44.0751ZM65.6725 38.9428V38.9356C66.1894 38.9642 66.5652 38.9428 66.5652 38.9428H71.9546L71.9621 38.9475C72.2824 38.5717 72.638 38.2198 73.0289 37.8916C74.9557 36.2648 77.6793 35.2517 80.6981 35.2517C82.2213 35.2517 83.6714 35.5085 84.9803 35.9747L84.9778 36.0318C84.9702 36.0318 84.9652 36.0318 84.9576 36.0318H82.1986H81.152C79.48 36.0318 78.451 37.7536 79.3161 39.1021L81.4042 42.3627C81.9262 43.1761 82.8921 43.4781 83.7471 43.2831C84.3271 43.1523 84.8592 42.7932 85.1619 42.2153L86.8793 38.9547C87.2853 38.1841 87.1189 37.3374 86.6019 36.7547L86.6473 36.7191C87.2097 37.0259 87.7317 37.3755 88.2109 37.7631C88.6598 38.1246 89.0658 38.5194 89.429 38.9428C89.4391 38.9428 89.4466 38.9428 89.4567 38.9428C89.6912 38.9428 90.0267 38.9428 90.4983 38.9428C91.3002 38.9428 91.7012 38.5765 91.9005 38.2103L92.0568 38.2531L92.8588 38.8143C99.837 45.571 97.0527 55.4123 96.3643 57.4767C96.2785 57.7288 96.2256 57.8643 96.2256 57.8643C96.2256 57.8643 94.4526 59.8692 90.7177 61.8004C89.9308 62.207 89.0583 62.6114 88.0974 62.9895C87.9637 63.0442 87.8301 63.0965 87.6914 63.1488C84.2767 64.445 79.7927 65.4344 74.1688 65.3155C63.5036 65.0871 57.1105 63.2915 54.0111 62.1119C52.6972 61.6101 51.9759 61.2201 51.7716 61.1035C51.7338 61.0132 51.696 60.9228 51.6606 60.8324C46.1553 47.3095 57.794 38.2103 57.794 38.2103L57.8368 38.1722C58.828 39.0807 61.2767 38.9428 61.2767 38.9428H65.6725ZM56.1673 42.4103C56.1673 42.1415 55.9378 41.9251 55.6529 41.9251C55.3679 41.9251 55.1384 42.1415 55.1384 42.4103C55.1384 42.679 55.3679 42.8955 55.6529 42.8955C55.9378 42.8955 56.1673 42.679 56.1673 42.4103ZM53.3176 60.0999C53.3176 59.8311 53.0855 59.6123 52.8031 59.6123C52.5181 59.6123 52.2861 59.8311 52.2861 60.0999C52.2861 60.3663 52.5181 60.5851 52.8031 60.5851C53.0855 60.5851 53.3176 60.3663 53.3176 60.0999Z" fill="#F287B1"/>
<path d="M98.4423 69.7414C98.4423 70.9472 97.5874 72.0578 96.0843 73.0638L96.0793 73.0567C94.1979 71.732 91.2775 70.5738 87.6283 69.6748C87.6939 69.4655 87.6989 69.3109 87.6989 69.3109C87.6989 69.3109 87.1037 66.935 86.9676 66.2002C87.6989 66.1145 87.8376 65.294 87.8376 65.294L87.704 63.1774L87.6914 63.1488C87.8301 63.0965 87.9637 63.0442 88.0974 62.9895C94.4274 64.6162 98.4423 67.0373 98.4423 69.7414Z" fill="#A28DDE"/>
<path d="M96.0793 73.0568L96.0843 73.0639C95.2445 73.6275 94.2005 74.1603 92.9899 74.6573L92.9824 74.6431C91.4137 73.9938 89.4718 73.4159 87.2399 72.9307L87.2223 72.9331C87.0659 72.2149 86.8339 71.1637 86.6927 70.65C87.2828 70.4645 87.5274 70.0031 87.6283 69.6749C91.2775 70.5739 94.1979 71.7321 96.0793 73.0568Z" fill="#1789CE"/>
<path d="M93.338 77.9916C93.8701 77.9916 94.3013 78.3983 94.3013 78.9001C94.3013 79.3996 93.8701 79.8063 93.338 79.8063C92.8084 79.8063 92.3771 79.3996 92.3771 78.9001C92.3771 78.3983 92.8084 77.9916 93.338 77.9916Z" fill="#888888"/>
<path d="M92.9824 74.6431L92.9899 74.6573C92.4603 74.8761 91.9004 75.0854 91.3103 75.29L91.3053 75.2757C90.2637 74.7929 88.9725 74.3505 87.4795 73.9581H87.477C87.4493 73.794 87.3786 73.6727 87.3786 73.6727C87.3786 73.6727 87.3156 73.3635 87.2223 72.9331L87.2399 72.9307C89.4718 73.4159 91.4137 73.9938 92.9824 74.6431Z" fill="#1B59B1"/>
<path d="M92.1022 33.7272C92.1022 35.7963 92.1022 37.4754 92.1022 37.4754C92.1022 37.4754 92.1022 37.8416 91.9005 38.2103C91.7012 38.5765 91.3002 38.9428 90.4983 38.9428C90.0267 38.9428 89.6913 38.9428 89.4567 38.9428C89.4466 38.9428 89.4391 38.9428 89.429 38.9428C89.0658 38.5194 88.6598 38.1246 88.2109 37.7631C89.608 37.4159 90.637 36.2196 90.637 34.7951V30.4381C90.637 28.7423 89.1793 27.3677 87.3812 27.3677H68.0128C66.2147 27.3677 64.757 28.7423 64.757 30.4381V34.7951C64.757 36.4908 66.2147 37.863 68.0128 37.863H73.0012L73.0289 37.8916C72.638 38.2198 72.2824 38.5718 71.9621 38.9475L71.9546 38.9428H66.5652C66.5652 38.9428 66.1894 38.9642 65.6725 38.9356C64.5351 38.8714 62.7193 38.5646 62.7193 37.2589C62.7193 35.3587 62.7193 29.6128 62.7193 29.6128C62.7193 29.6128 61.9854 25.7695 68.5348 25.7695H83.341H86.3774C86.3774 25.7695 89.318 25.6815 90.985 26.8706C91.6432 27.3415 92.1022 28.0098 92.1022 28.9659C92.1022 30.4095 92.1022 32.179 92.1022 33.7272Z" fill="#29A3FF"/>
<path d="M89.492 83.7447V81.8587V75.875L91.3229 77.2592V174.771L89.492 174.597V111.661V83.7447Z" fill="#A28DDE"/>
<path d="M91.3053 75.2757L91.3103 75.2899C90.7303 75.4921 90.125 75.6871 89.492 75.875V81.8587C85.0711 83.3642 77.9744 84.3416 69.9774 84.3416C62.9589 84.3416 56.6364 83.5901 52.2054 82.3867V76.9119C50.609 76.5671 49.1211 76.1746 47.7668 75.7466L47.7744 75.7252C49.174 74.9284 51.2244 74.2197 53.7564 73.6442L53.769 73.6465C53.7665 73.6632 53.7639 73.6727 53.7639 73.6727C53.7639 73.6727 53.2142 74.624 54.5432 74.8404C54.2229 75.9202 53.8093 77.5612 53.8093 77.5612C53.8093 77.5612 53.5344 78.3817 54.4499 78.6837L70.8727 79.9585L86.6927 78.6837C87.6081 78.3817 87.3332 77.5612 87.3332 77.5612C87.3332 77.5612 86.9197 75.9202 86.5994 74.8404C87.4543 74.7001 87.5325 74.2578 87.477 73.9581H87.4795C88.9725 74.3505 90.2637 74.7929 91.3053 75.2757Z" fill="#231F20"/>
<path d="M76.7538 12.796C77.7071 13.0552 78.6377 13.3668 79.5355 13.733C79.9995 13.9209 80.4534 14.1231 80.8998 14.3395C81.6917 14.7224 82.4533 15.1457 83.1771 15.6119C86.3598 17.6548 88.8136 20.4493 89.9964 23.7313L89.9712 23.7575C90.5487 24.3021 91.0733 25.2391 91.0934 26.8492L90.985 26.8706C89.318 25.6815 86.3774 25.7695 86.3774 25.7695H83.341H68.5348H63.2464C56.6944 25.7695 57.4283 29.6128 57.4283 29.6128C57.4283 29.6128 57.4283 35.3587 57.4283 37.2589C57.4283 37.366 57.4409 37.4682 57.4636 37.561C57.1534 37.511 49.8802 36.3576 48.314 32.5951V30.0028V28.3618C48.314 28.3618 48.4578 26.1143 49.7011 23.2842L49.686 23.2652L50.2307 22.8918C50.1929 23.4649 50.1904 23.7813 50.1904 23.7813C51.7489 26.0715 54.4045 24.7754 54.4045 24.7754L54.6819 22.1902L54.7248 22.1949C55.9958 18.9867 60.5302 18.1138 60.5302 18.1138L62.6487 18.599C64.7116 18.599 65.3522 17.3028 65.3976 16.4395C64.7948 15.4478 64.2047 14.5274 63.6347 13.6855L63.6473 13.6783L65.7481 12.2371C67.1629 12.0492 68.6912 11.947 70.3456 11.947C71.1097 11.947 71.8688 11.9826 72.6229 12.054C74.0326 12.1848 75.4172 12.4369 76.7538 12.796Z" fill="#F287B1"/>
<path d="M90.637 30.438V34.795C90.637 36.2196 89.608 37.4159 88.2109 37.7631C87.7317 37.3755 87.2097 37.0259 86.6473 36.7191L86.6019 36.7547C86.2211 36.3243 85.6486 36.0365 84.9778 36.0317L84.9803 35.9747C83.6714 35.5085 82.2213 35.2517 80.6981 35.2517C77.6793 35.2517 74.9557 36.2648 73.0289 37.8915L73.0012 37.863H68.0128C66.2147 37.863 64.757 36.4907 64.757 34.795V30.438C64.757 28.7423 66.2147 27.3677 68.0128 27.3677H87.3812C89.1793 27.3677 90.637 28.7423 90.637 30.438Z" fill="#23F748"/>
<path d="M89.492 111.661V174.597L57.6603 171.598H57.5897V155.83L57.567 155.704C60.7497 155.112 63.153 152.465 63.153 149.288V138.145H69.1098C69.2157 138.145 69.3242 138.143 69.4301 138.141V138.143V154.988C69.4301 157.314 71.4275 159.2 73.8939 159.2C75.1271 159.2 76.2443 158.729 77.0514 157.966C77.8609 157.205 78.3602 156.151 78.3602 154.988V132.699L78.3476 132.692L79.3337 131.429C80.6174 129.783 81.2504 127.85 81.2504 125.926C81.2504 123.583 80.3147 121.252 78.4813 119.464C78.4384 119.421 78.3955 119.381 78.3501 119.34L78.3602 119.331V113.483H78.3956C82.6198 113.119 86.3976 112.486 89.4441 111.661H89.492V111.661Z" fill="#1789CE"/>
<path d="M89.492 83.7447V111.661H89.4441C86.3976 112.486 82.6198 113.119 78.3956 113.483H78.3602V105.551L78.3577 105.53C78.9504 105.458 79.485 105.202 79.8885 104.821C80.3652 104.369 80.6628 103.746 80.6628 103.056C80.6628 101.679 79.4775 100.561 78.0173 100.561H75.9568L75.9442 100.564C75.8812 100.16 75.5105 99.8504 75.0641 99.8504C74.6177 99.8504 74.247 100.157 74.1814 100.561H69.9774C69.2485 100.561 68.5878 100.84 68.1086 101.292C67.6295 101.743 67.3344 102.367 67.3344 103.056C67.3344 104.264 68.2398 105.268 69.4452 105.501L69.4301 105.682V113.835H69.4125C62.8479 113.799 56.8558 113.145 52.2054 112.082V84.1799C56.9869 85.2716 63.1934 85.9304 69.9774 85.9304C77.6188 85.9304 84.5263 85.0932 89.492 83.7447ZM79.1849 98.8135C79.1849 98.597 79.0008 98.4234 78.7738 98.4234C78.5443 98.4234 78.3602 98.597 78.3602 98.8135C78.3602 99.0275 78.5443 99.2011 78.7738 99.2011C79.0008 99.2011 79.1849 99.0275 79.1849 98.8135ZM77.6743 95.7669C77.6743 94.944 76.9656 94.2781 76.093 94.2781C75.2204 94.2781 74.5143 94.944 74.5143 95.7669C74.5143 96.5898 75.2204 97.2581 76.093 97.2581C76.9656 97.2581 77.6743 96.5898 77.6743 95.7669ZM77.1245 89.6761C77.1245 89.2837 76.7866 88.965 76.3679 88.965C75.9518 88.965 75.6113 89.2837 75.6113 89.6761C75.6113 90.0709 75.9518 90.3896 76.3679 90.3896C76.7866 90.3896 77.1245 90.0709 77.1245 89.6761ZM73.208 88.8984C73.208 88.6844 73.0238 88.5108 72.7944 88.5108C72.5674 88.5108 72.3833 88.6844 72.3833 88.8984C72.3833 89.1149 72.5674 89.2885 72.7944 89.2885C73.0238 89.2885 73.208 89.1149 73.208 88.8984ZM71.4224 92.14C71.4224 91.6739 71.0214 91.2957 70.5271 91.2957C70.0354 91.2957 69.6344 91.6739 69.6344 92.14C69.6344 92.6038 70.0354 92.9819 70.5271 92.9819C71.0214 92.9819 71.4224 92.6038 71.4224 92.14ZM70.6659 98.0358C70.6659 97.4983 70.2043 97.0631 69.6344 97.0631C69.067 97.0631 68.6054 97.4983 68.6054 98.0358C68.6054 98.5733 69.067 99.0061 69.6344 99.0061C70.2043 99.0061 70.6659 98.5733 70.6659 98.0358ZM67.0923 99.0061C67.0923 98.685 66.8149 98.4234 66.4744 98.4234C66.134 98.4234 65.8565 98.685 65.8565 99.0061C65.8565 99.3295 66.134 99.5912 66.4744 99.5912C66.8149 99.5912 67.0923 99.3295 67.0923 99.0061Z" fill="#29A3FF"/>
<path d="M89.492 81.8587V83.7447C84.5263 85.0932 77.6188 85.9303 69.9774 85.9303C63.1934 85.9303 56.9869 85.2715 52.2054 84.1799V82.3867C56.6364 83.5901 62.9589 84.3416 69.9774 84.3416C77.9744 84.3416 85.0711 83.3642 89.492 81.8587Z" fill="#29A3FF"/>
<path d="M89.3508 48.5748L89.3533 48.6628L83.9135 55.7167C82.5694 57.2007 80.282 57.4338 78.6478 56.3612C80.0424 56.6775 81.5808 56.2661 82.587 55.1554L87.7746 48.4249C88.2613 48.5319 88.7859 48.589 89.3508 48.5748Z" fill="#DF7588"/>
<path d="M87.704 63.1774L87.8376 65.2941C87.8376 65.2941 87.6989 66.1146 86.9676 66.2002L70.734 67.4749L54.175 66.2002C53.4437 66.1146 53.3049 65.2941 53.3049 65.2941L53.6731 62.2261L53.6656 62.1904C53.7791 62.169 53.89 62.15 54.0035 62.1286L54.0111 62.1119C57.1105 63.2916 63.5036 65.0872 74.1688 65.3155C79.7927 65.4344 84.2767 64.445 87.6914 63.1489L87.704 63.1774Z" fill="#FFE139"/>
<path d="M87.7746 48.4249L82.587 55.1555C81.5808 56.2661 80.0424 56.6775 78.6478 56.3612C78.4485 56.2304 78.2569 56.0806 78.0803 55.9094L71.9016 49.4405L71.9066 49.3786C74.0099 49.5332 80.3324 49.5546 82.7282 44.0751C82.8922 44.4389 84.4431 47.6782 87.7746 48.4249Z" fill="#23F748"/>
<path d="M87.6283 69.6748C87.5274 70.003 87.2828 70.4644 86.6927 70.6499L70.734 71.9247L54.4499 70.6499C53.489 70.3479 53.4437 69.311 53.4437 69.311C53.4437 69.311 53.4689 69.2063 53.5143 69.0327C53.6732 68.3858 54.0666 66.7805 54.175 66.2002L70.734 67.4749L86.9676 66.2002C87.1038 66.9351 87.6989 69.311 87.6989 69.311C87.6989 69.311 87.6939 69.4656 87.6283 69.6748Z" fill="#FFE139"/>
<path d="M87.477 73.9581C87.5325 74.2577 87.4543 74.7001 86.5994 74.8404L70.5978 76.1128L54.5432 74.8404C53.2142 74.624 53.7639 73.6727 53.7639 73.6727C53.7639 73.6727 53.7665 73.6632 53.769 73.6465C53.7917 73.5443 53.8724 73.1566 53.9758 72.6833C54.1271 71.9889 54.3238 71.1065 54.4499 70.6499L70.7339 71.9247L86.6927 70.6499C86.8339 71.1636 87.0659 72.2148 87.2223 72.933C87.3156 73.3635 87.3786 73.6727 87.3786 73.6727C87.3786 73.6727 87.4492 73.794 87.477 73.9581Z" fill="#FFE139"/>
<path d="M87.3332 77.5612C87.3332 77.5612 87.6081 78.3817 86.6927 78.6837L70.8727 79.9585L54.4499 78.6837C53.5344 78.3817 53.8093 77.5612 53.8093 77.5612C53.8093 77.5612 54.2229 75.9202 54.5432 74.8405L70.5978 76.1128L86.5994 74.8405C86.9196 75.9202 87.3332 77.5612 87.3332 77.5612Z" fill="#FFE139"/>
<path d="M86.6019 36.7548C87.1189 37.3374 87.2853 38.1841 86.8793 38.9547L85.1619 42.2153C84.8593 42.7932 84.3271 43.1523 83.7471 43.2831L83.7446 43.276C83.2351 43.1523 82.7635 42.8479 82.4508 42.3627L80.3627 39.1021C79.4976 37.7536 80.5291 36.0318 82.1986 36.0318H84.9576C84.9652 36.0318 84.9702 36.0318 84.9778 36.0318C85.6486 36.0365 86.2211 36.3243 86.6019 36.7548Z" fill="#FFE139"/>
<path d="M83.7446 43.276L83.7471 43.2831C82.8922 43.4781 81.9263 43.1761 81.4042 42.3627L79.3161 39.1021C78.451 37.7536 79.48 36.0318 81.152 36.0318H82.1986C80.5291 36.0318 79.4976 37.7536 80.3627 39.1021L82.4508 42.3627C82.7635 42.8479 83.2351 43.1523 83.7446 43.276Z" fill="#FFE139"/>
<path d="M78.0299 9.53066C77.1144 10.2394 76.8067 12.3846 76.7538 12.796C75.4172 12.4369 74.0326 12.1848 72.6229 12.054C72.6229 12.054 74.0326 6.57922 78.1888 6.31999C82.3449 6.06075 83.2049 15.5857 83.2049 15.5857L83.1771 15.6119C82.4533 15.1458 81.6917 14.7224 80.8998 14.3395C80.4534 14.1231 79.9995 13.921 79.5355 13.7331L79.5632 13.6736C79.4245 10.7269 78.0526 9.55919 78.0526 9.55919L78.0299 9.53066Z" fill="#29A3FF"/>
<path d="M69.4452 105.501C68.2398 105.268 67.3344 104.264 67.3344 103.056C67.3344 102.367 67.6295 101.743 68.1086 101.292C68.5878 100.84 69.2485 100.561 69.9774 100.561H74.1814C74.1713 100.604 74.1688 100.647 74.1688 100.692C74.1688 101.156 74.5698 101.534 75.0641 101.534C75.5559 101.534 75.9569 101.156 75.9569 100.692C75.9569 100.647 75.9543 100.604 75.9442 100.564L75.9569 100.561H78.0173C79.4775 100.561 80.6628 101.679 80.6628 103.056C80.6628 103.746 80.3652 104.369 79.8885 104.821C79.485 105.201 78.9504 105.458 78.3577 105.53L78.3602 105.551V113.483V119.331L78.3502 119.34C77.9946 119.005 77.6163 118.701 77.2153 118.425V111.297L70.5751 111.392V116.589V116.634L69.4301 116.639V113.835V105.682L69.4452 105.501Z" fill="#DACDFE"/>
<path d="M63.1531 138.145H62.626V138.079C62.626 138.079 58.9843 133.995 58.9843 126.675C58.9843 119.352 62.626 116.76 62.626 116.76V116.66L69.4301 116.639L70.5751 116.634L71.3972 116.632C73.503 116.632 75.5382 117.269 77.2153 118.425C77.6163 118.701 77.9946 119.005 78.3501 119.34C78.3955 119.381 78.4384 119.421 78.4813 119.464C80.3147 121.252 81.2504 123.583 81.2504 125.926C81.2504 127.85 80.6174 129.783 79.3337 131.429L78.3476 132.692L77.1901 134.174L77.0463 134.359C75.4827 136.364 73.1449 137.679 70.5725 138.041C70.1968 138.095 69.8134 138.129 69.4301 138.141C69.3242 138.143 69.2157 138.145 69.1098 138.145H63.1531V138.145Z" fill="#F287B1"/>
<path d="M79.5632 13.6736L79.5355 13.733C78.6377 13.3668 77.7071 13.0552 76.7538 12.796C76.8067 12.3846 77.1144 10.2394 78.0299 9.53064L78.0526 9.55918C78.0526 9.55918 79.4245 10.7269 79.5632 13.6736Z" fill="#FFE139"/>
<path d="M78.3905 0.676331L78.8621 1.27566L76.8143 3.55404L76.89 1.20669L78.3905 0.676331Z" fill="#231F20"/>
<path d="M78.7738 98.4234C79.0008 98.4234 79.1849 98.597 79.1849 98.8134C79.1849 99.0275 79.0008 99.2011 78.7738 99.2011C78.5443 99.2011 78.3602 99.0275 78.3602 98.8134C78.3602 98.597 78.5443 98.4234 78.7738 98.4234Z" fill="#00FF67"/>
<path d="M78.3602 132.699V154.988C78.3602 156.151 77.8609 157.205 77.0514 157.966C76.2443 158.729 75.1271 159.2 73.8939 159.2C71.4275 159.2 69.4301 157.314 69.4301 154.988V138.143V138.141C69.8134 138.129 70.1968 138.095 70.5725 138.041L70.5751 138.055V154.46C70.5751 155.326 70.9458 156.108 71.546 156.674C72.1487 157.243 72.9759 157.592 73.8939 157.592C75.7299 157.592 77.2153 156.189 77.2153 154.46V134.19L77.1901 134.174L78.3476 132.692L78.3602 132.699Z" fill="#DACDFE"/>
<path d="M76.093 94.2781C76.9656 94.2781 77.6743 94.944 77.6743 95.7669C77.6743 96.5898 76.9656 97.2581 76.093 97.2581C75.2205 97.2581 74.5143 96.5898 74.5143 95.7669C74.5143 94.944 75.2205 94.2781 76.093 94.2781Z" fill="#00FF67"/>
<path d="M77.2153 134.19V154.46C77.2153 156.189 75.7299 157.593 73.8939 157.593C72.9759 157.593 72.1487 157.243 71.546 156.675C70.9458 156.108 70.5751 155.326 70.5751 154.46V138.055L70.5725 138.041C73.1449 137.679 75.4827 136.364 77.0463 134.359L77.1901 134.174L77.2153 134.19Z" fill="#00FF67"/>
<path d="M77.2153 111.297V118.425C75.5382 117.269 73.503 116.632 71.3972 116.632L70.5751 116.634V116.589V111.392L77.2153 111.297Z" fill="#00FF67"/>
<path d="M76.3679 88.965C76.7866 88.965 77.1245 89.2837 77.1245 89.6761C77.1245 90.0709 76.7866 90.3896 76.3679 90.3896C75.9518 90.3896 75.6114 90.0709 75.6114 89.6761C75.6114 89.2837 75.9518 88.965 76.3679 88.965Z" fill="#00FF67"/>
<path d="M76.89 1.20667L76.8143 3.55402L74.2646 6.38655L72.5674 6.40795L73.0138 4.78835L71.1778 4.63614L71.6519 3.05221L76.89 1.20667Z" fill="#FFE139"/>
<path d="M74.1814 100.561C74.247 100.157 74.6177 99.8504 75.0641 99.8504C75.5105 99.8504 75.8812 100.16 75.9442 100.564C75.9543 100.604 75.9568 100.647 75.9568 100.692C75.9568 101.156 75.5559 101.534 75.0641 101.534C74.5698 101.534 74.1688 101.156 74.1688 100.692C74.1688 100.647 74.1713 100.604 74.1814 100.561Z" fill="#00FF67"/>
<path d="M74.2646 6.38656L65.7481 12.2371L63.6474 13.6783L63.6347 13.6855C63.2363 13.0933 62.8479 12.5415 62.4671 12.0278L62.5301 11.9874L73.0138 4.78836L72.5674 6.40796L74.2646 6.38656Z" fill="#231F20"/>
<path d="M73.0138 4.78839L62.5301 11.9874L62.4671 12.0279C61.998 11.3881 61.5466 10.8102 61.1103 10.2917L71.6519 3.05225L71.1778 4.63618L73.0138 4.78839Z" fill="#F27870"/>
<path d="M72.7944 88.5108C73.0238 88.5108 73.208 88.6844 73.208 88.8984C73.208 89.1148 73.0238 89.2885 72.7944 89.2885C72.5674 89.2885 72.3833 89.1148 72.3833 88.8984C72.3833 88.6844 72.5674 88.5108 72.7944 88.5108Z" fill="#00FF67"/>
<path d="M70.5272 91.2957C71.0215 91.2957 71.4224 91.6739 71.4224 92.14C71.4224 92.6038 71.0215 92.9819 70.5272 92.9819C70.0354 92.9819 69.6344 92.6038 69.6344 92.14C69.6344 91.6739 70.0354 91.2957 70.5272 91.2957Z" fill="#00FF67"/>
<path d="M69.6344 97.063C70.2043 97.063 70.6659 97.4983 70.6659 98.0358C70.6659 98.5733 70.2043 99.0061 69.6344 99.0061C69.067 99.0061 68.6054 98.5733 68.6054 98.0358C68.6054 97.4983 69.067 97.063 69.6344 97.063Z" fill="#00FF67"/>
<path d="M57.1887 115.314C56.0286 115.155 53.7513 114.317 53.7513 114.317C53.2747 114.103 52.7476 113.854 52.1776 113.571L52.2054 113.521V112.082C56.8558 113.145 62.8479 113.799 69.4125 113.835H69.4301V116.639L62.626 116.66L60.4319 116.665V116.617C59.8468 116.194 59.1886 115.859 58.4799 115.628C58.0638 115.492 57.6326 115.395 57.1862 115.338L57.1887 115.314Z" fill="#1789CE"/>
<path d="M57.4636 37.561C57.4409 37.4682 57.4283 37.366 57.4283 37.2589C57.4283 35.3587 57.4283 29.6128 57.4283 29.6128C57.4283 29.6128 56.6944 25.7695 63.2464 25.7695H68.5348C61.9854 25.7695 62.7193 29.6128 62.7193 29.6128C62.7193 29.6128 62.7193 35.3587 62.7193 37.2589C62.7193 38.5646 64.5351 38.8714 65.6724 38.9356V38.9428H61.2767C61.2767 38.9428 58.828 39.0807 57.8368 38.1722C57.6553 38.0057 57.5241 37.8059 57.4636 37.561ZM61.1128 30.8019C61.1128 30.0623 60.9035 29.463 60.6437 29.463H59.7056C59.4458 29.463 59.2365 30.0623 59.2365 30.8019C59.2365 31.5416 59.4458 32.1409 59.7056 32.1409H60.6437C60.9035 32.1409 61.1128 31.5416 61.1128 30.8019ZM61.1128 34.8521C61.1128 34.1125 60.9035 33.5132 60.6437 33.5132H59.7056C59.4458 33.5132 59.2365 34.1125 59.2365 34.8521C59.2365 35.5918 59.4458 36.1911 59.7056 36.1911H60.6437C60.9035 36.1911 61.1128 35.5918 61.1128 34.8521Z" fill="#1B59B1"/>
<path d="M66.4744 98.4234C66.8149 98.4234 67.0923 98.685 67.0923 99.0061C67.0923 99.3295 66.8149 99.5911 66.4744 99.5911C66.134 99.5911 65.8566 99.3295 65.8566 99.0061C65.8566 98.685 66.134 98.4234 66.4744 98.4234Z" fill="#00FF67"/>
<path d="M51.0176 17.2244C51.4614 15.0601 52.1524 12.513 53.2141 9.83031C53.2141 9.83031 54.7727 6.11544 57.7486 7.2808C58.5985 7.63754 59.7535 8.6602 61.1103 10.2917C61.5466 10.8102 61.998 11.3881 62.4671 12.0278C62.8479 12.5415 63.2363 13.0933 63.6347 13.6855C64.2047 14.5274 64.7948 15.4478 65.3976 16.4395C65.3522 17.3028 64.7116 18.599 62.6487 18.599C62.6487 18.599 59.582 10.4772 57.7486 10.91C57.2265 11.0337 56.823 11.3476 56.5128 11.7305C55.7386 12.6937 55.5494 14.1064 55.5494 14.1064L54.6819 22.1902L54.4045 24.7754C54.4045 24.7754 51.7489 26.0715 50.1904 23.7813C50.1904 23.7813 50.1929 23.465 50.2307 22.8918C50.266 22.2877 50.3417 21.3959 50.493 20.2876C50.6115 19.3957 50.778 18.3612 51.0176 17.2244Z" fill="#29A3FF"/>
<path d="M63.153 138.145V149.288C63.153 152.465 60.7497 155.112 57.567 155.704C57.1307 155.787 56.6767 155.83 56.2152 155.83C55.8748 155.83 55.5419 155.806 55.2166 155.761C54.5054 155.666 53.8295 155.469 53.2066 155.186C52.4979 154.862 51.8573 154.432 51.3076 153.913C50.0516 152.729 49.2749 151.093 49.2749 149.288V121.814C49.2749 118.201 52.3819 115.271 56.2152 115.271C56.5456 115.271 56.8684 115.292 57.1862 115.338C57.6326 115.395 58.0638 115.492 58.4799 115.628C59.1886 115.859 59.8468 116.194 60.4319 116.617V116.665L56.2152 116.679C53.0931 116.679 50.5636 119.067 50.5636 122.009V138.145V149.119C50.5636 150.591 51.1966 151.923 52.218 152.888C53.2419 153.851 54.6542 154.448 56.2152 154.448C59.3349 154.448 61.8643 152.063 61.8643 149.119V138.174V138.145H62.626H63.153V138.145Z" fill="#A28DDE"/>
<path d="M62.6487 18.599L60.5303 18.1138C60.5303 18.1138 58.8834 12.8008 56.5128 11.7306C56.823 11.3476 57.2265 11.0337 57.7486 10.91C59.582 10.4772 62.6487 18.599 62.6487 18.599Z" fill="#29A3FF"/>
<path d="M62.626 138.079V138.145H61.8644H50.5813H50.5636V122.009C50.5636 119.067 53.0931 116.679 56.2152 116.679L60.4319 116.665L62.626 116.66V116.76C62.626 116.76 58.9843 119.352 58.9843 126.675C58.9843 133.995 62.626 138.079 62.626 138.079ZM59.181 136.312C59.5568 136.276 59.8266 135.9 59.7812 135.475C59.7358 135.046 59.3954 134.728 59.0171 134.763C58.6388 134.799 58.369 135.175 58.4144 135.601C58.4598 136.029 58.8027 136.347 59.181 136.312ZM59.7182 119.067C59.8821 118.665 59.7283 118.237 59.3727 118.108C59.0196 117.98 58.5985 118.201 58.4371 118.601C58.2731 119.003 58.427 119.431 58.78 119.559C59.1356 119.688 59.5543 119.466 59.7182 119.067ZM57.6679 131.194C58.0462 131.158 58.316 130.782 58.2706 130.354C58.2252 129.928 57.8822 129.61 57.5065 129.645C57.1282 129.681 56.8583 130.057 56.9037 130.483C56.9491 130.911 57.2896 131.227 57.6679 131.194ZM57.5317 125.835C57.9074 125.802 58.1773 125.426 58.1319 124.998C58.089 124.573 57.746 124.254 57.3678 124.29C56.9895 124.325 56.7196 124.699 56.765 125.127C56.8104 125.555 57.1534 125.871 57.5317 125.835Z" fill="#F287B1"/>
<path d="M61.8643 138.174V149.119C61.8643 152.063 59.3349 154.448 56.2152 154.448C54.6542 154.448 53.2419 153.851 52.218 152.888C51.1966 151.923 50.5636 150.591 50.5636 149.119V138.145H50.5813H61.8643V138.174Z" fill="#231F20"/>
<path d="M60.6437 29.463C60.9035 29.463 61.1128 30.0623 61.1128 30.8019C61.1128 31.5416 60.9035 32.1409 60.6437 32.1409H59.7056C59.9628 32.1409 60.1747 31.5416 60.1747 30.8019C60.1747 30.0623 59.9628 29.463 59.7056 29.463H60.6437V29.463Z" fill="#23F748"/>
<path d="M60.6437 33.5132C60.9035 33.5132 61.1128 34.1125 61.1128 34.8521C61.1128 35.5918 60.9035 36.1911 60.6437 36.1911H59.7056C59.9628 36.1911 60.1747 35.5918 60.1747 34.8521C60.1747 34.1125 59.9628 33.5132 59.7056 33.5132H60.6437Z" fill="#23F748"/>
<path d="M59.7056 32.1409C59.9646 32.1409 60.1747 31.5414 60.1747 30.8019C60.1747 30.0624 59.9646 29.463 59.7056 29.463C59.4465 29.463 59.2365 30.0624 59.2365 30.8019C59.2365 31.5414 59.4465 32.1409 59.7056 32.1409Z" fill="#23F748"/>
<path d="M59.7056 36.1911C59.9646 36.1911 60.1747 35.5916 60.1747 34.8521C60.1747 34.1126 59.9646 33.5132 59.7056 33.5132C59.4465 33.5132 59.2365 34.1126 59.2365 34.8521C59.2365 35.5916 59.4465 36.1911 59.7056 36.1911Z" fill="#23F748"/>
<path d="M59.7812 135.475C59.8266 135.9 59.5568 136.276 59.181 136.312C58.8027 136.347 58.4598 136.029 58.4144 135.601C58.369 135.175 58.6388 134.799 59.0171 134.763C59.3954 134.728 59.7358 135.046 59.7812 135.475Z" fill="#DF7588"/>
<path d="M59.3727 118.108C59.7283 118.237 59.8821 118.665 59.7182 119.067C59.5543 119.466 59.1356 119.688 58.78 119.559C58.427 119.431 58.2731 119.003 58.4371 118.601C58.5985 118.201 59.0196 117.98 59.3727 118.108Z" fill="#DF7588"/>
<path d="M56.5128 11.7306C58.8834 12.8008 60.5302 18.1138 60.5302 18.1138C60.5302 18.1138 55.9958 18.9867 54.7248 22.195L54.6819 22.1902L55.5494 14.1065C55.5494 14.1065 55.7386 12.6938 56.5128 11.7306Z" fill="#FFE139"/>
<path d="M58.2706 130.354C58.316 130.782 58.0462 131.158 57.6679 131.194C57.2896 131.227 56.9491 130.911 56.9037 130.483C56.8583 130.057 57.1282 129.681 57.5065 129.645C57.8822 129.61 58.2252 129.928 58.2706 130.354Z" fill="#DF7588"/>
<path d="M58.1319 124.998C58.1773 125.426 57.9074 125.802 57.5317 125.835C57.1534 125.871 56.8104 125.555 56.765 125.127C56.7196 124.699 56.9895 124.325 57.3678 124.29C57.746 124.254 58.089 124.573 58.1319 124.998Z" fill="#DF7588"/>
<path d="M57.8368 38.1722L57.794 38.2103C57.794 38.2103 46.1553 47.3095 51.6606 60.8324H51.6581C51.5825 60.8467 51.5068 60.8609 51.4312 60.8776C26.3935 49.0385 48.3141 30.0028 48.3141 30.0028V32.5952C49.8802 36.3576 57.1534 37.511 57.4636 37.561C57.5241 37.806 57.6553 38.0057 57.8368 38.1722Z" fill="#F287B1"/>
<path d="M57.5897 171.598V173.907L55.2216 174.093L55.2065 173.907V155.83L55.2166 155.761C55.5419 155.806 55.8748 155.83 56.2152 155.83C56.6768 155.83 57.1307 155.787 57.567 155.704L57.5897 155.83V171.598Z" fill="#A28DDE"/>
<path d="M57.1887 115.314L57.1862 115.338C56.8684 115.293 56.5456 115.271 56.2152 115.271C52.3819 115.271 49.2749 118.201 49.2749 121.814V149.288C49.2749 151.093 50.0517 152.729 51.3076 153.913C51.8574 154.432 52.4979 154.862 53.2066 155.186L53.199 155.2C38.1709 148.381 25.0392 129.952 23.4403 121.576C23.1326 119.959 23.0217 118.12 23.0797 116.194C23.1326 114.313 23.342 112.346 23.6774 110.415L23.7127 110.403C24.0405 111.285 24.6004 111.894 25.3343 112.046C26.9181 112.37 28.7061 110.441 29.329 107.737C29.9519 105.033 29.1752 102.578 27.5939 102.252C26.9937 102.131 26.3657 102.331 25.7832 102.773L25.7605 102.745C26.9256 99.7576 28.3682 97.4959 29.8712 96.7562C29.9872 96.6968 30.1032 96.6468 30.2192 96.6088C34.6175 95.1414 38.5567 102.053 38.5567 102.053C41.7646 107.047 46.5689 110.486 50.3745 112.617C51.0075 112.971 51.6127 113.288 52.1776 113.571C52.7476 113.854 53.2747 114.103 53.7513 114.317C53.7513 114.317 56.0286 115.155 57.1887 115.314Z" fill="#DACDFE"/>
<path d="M55.6528 42.8954C55.937 42.8954 56.1673 42.6782 56.1673 42.4103C56.1673 42.1423 55.937 41.9251 55.6528 41.9251C55.3687 41.9251 55.1384 42.1423 55.1384 42.4103C55.1384 42.6782 55.3687 42.8954 55.6528 42.8954Z" fill="#DF7588"/>
<path d="M53.199 155.2L53.2066 155.186C53.8295 155.469 54.5054 155.666 55.2166 155.761L55.2065 155.83V173.907L55.2216 174.093L1.34071 178.314L23.057 116.194H23.0797C23.0217 118.12 23.1326 119.959 23.4403 121.576C25.0392 129.952 38.1709 148.381 53.199 155.2Z" fill="#DACDFE"/>
<path d="M54.4499 70.6499C54.3238 71.1066 54.1271 71.9889 53.9758 72.6834L53.948 72.6786C50.6544 73.316 47.9105 74.1436 45.946 75.1045L45.9434 75.1092C44.3471 74.5004 43.0079 73.8273 41.9815 73.1043C44.342 71.4134 48.3922 69.9888 53.489 69.028L53.5143 69.0327C53.4689 69.2063 53.4437 69.311 53.4437 69.311C53.4437 69.311 53.489 70.3479 54.4499 70.6499Z" fill="#1789CE"/>
<path d="M51.4311 60.8776C51.5068 60.8609 51.5825 60.8467 51.6581 60.8324H51.6606C51.696 60.9228 51.7338 61.0131 51.7716 61.1035C51.9759 61.2201 52.6972 61.6101 54.0111 62.1119L54.0035 62.1286C53.89 62.15 53.7791 62.169 53.6656 62.1904C45.2751 63.7505 39.684 66.5498 39.684 69.7414C39.684 70.9353 40.5087 72.0721 41.9815 73.1043C43.0079 73.8273 44.3471 74.5003 45.9434 75.1092C46.5184 75.3304 47.1287 75.542 47.7668 75.7466C49.1211 76.1746 50.609 76.5671 52.2054 76.9119L50.3745 78.2081C41.7142 76.3221 35.8078 73.3041 35.8078 69.7414C35.8078 66.0051 42.0471 62.7255 51.4311 60.8776Z" fill="#DACDFE"/>
<path d="M53.948 72.6786L53.9758 72.6833C53.8724 73.1566 53.7917 73.5443 53.769 73.6466L53.7564 73.6442C51.2244 74.2197 49.174 74.9285 47.7744 75.7252L47.7668 75.7466C47.1288 75.542 46.5184 75.3304 45.9435 75.1092L45.946 75.1044C47.9105 74.1436 50.6544 73.316 53.948 72.6786Z" fill="#1B59B1"/>
<path d="M54.175 66.2002C54.0666 66.7805 53.6731 68.3858 53.5143 69.0327L53.489 69.028C48.3922 69.9888 44.342 71.4134 41.9815 73.1043C40.5087 72.0721 39.684 70.9353 39.684 69.7414C39.684 66.5498 45.2751 63.7506 53.6656 62.1904L53.6731 62.2261L53.3049 65.2941C53.3049 65.2941 53.4436 66.1146 54.175 66.2002Z" fill="#A28DDE"/>
<path d="M52.8031 59.6124C53.0855 59.6124 53.3176 59.8312 53.3176 60.0999C53.3176 60.3663 53.0855 60.5851 52.8031 60.5851C52.5181 60.5851 52.2861 60.3663 52.2861 60.0999C52.2861 59.8312 52.5181 59.6124 52.8031 59.6124Z" fill="#DF7588"/>
<path d="M52.2054 112.082V113.521L52.1776 113.571C51.6127 113.288 51.0075 112.971 50.3745 112.617V112.615V111.642V78.2081L52.2054 76.9119V82.3867V84.1799V112.082V112.082Z" fill="#A28DDE"/>
<path d="M43.6283 22.2972L51.0175 17.2244C50.778 18.3612 50.6115 19.3957 50.493 20.2876L50.4526 20.2828L45.0255 24.0096L44.0823 22.8062C44.0192 22.7253 43.9461 22.6563 43.8654 22.6016L43.6283 22.2972Z" fill="#F27870"/>
<path d="M50.4526 20.2828L50.493 20.2876C50.3417 21.3959 50.266 22.2877 50.2307 22.8918L49.686 23.2652L46.241 25.6316L46.0368 25.37C46.0014 25.2796 45.9535 25.1916 45.888 25.1084L45.0255 24.0096L50.4526 20.2828Z" fill="#231F20"/>
<path d="M50.3745 112.615C46.5689 110.486 41.7646 107.047 38.5567 102.053C38.5567 102.053 34.6175 95.1414 30.2193 96.6088C30.1032 96.6468 29.9872 96.6968 29.8712 96.7562L29.8586 96.7348L34.1585 84.4296L34.2619 84.3559C35.9743 86.5225 39.2982 89.9401 43.7342 90.7463L41.1215 100.064L50.3745 111.642V112.615Z" fill="#DACDFE"/>
<path d="M50.3745 78.2081V111.642L41.1215 100.064L43.7342 90.7464C39.2982 89.9401 35.9743 86.5226 34.2619 84.3559C33.4196 83.2905 32.9682 82.5271 32.9682 82.5271L35.8078 69.7415C35.8078 73.3041 41.7142 76.3221 50.3745 78.2081ZM49.1387 79.8943C49.1387 79.2498 48.8512 78.7266 48.4956 78.7266C48.1426 78.7266 47.8551 79.2498 47.8551 79.8943C47.8551 80.5364 48.1426 81.0597 48.4956 81.0597C48.8512 81.0597 49.1387 80.5364 49.1387 79.8943Z" fill="#DACDFE"/>
<path d="M48.4956 78.7266C48.8512 78.7266 49.1387 79.2498 49.1387 79.8943C49.1387 80.5364 48.8512 81.0596 48.4956 81.0596C48.1426 81.0596 47.8551 80.5364 47.8551 79.8943C47.8551 79.2498 48.1426 78.7266 48.4956 78.7266Z" fill="#888888"/>
<path d="M44.9902 24.0334L46.0368 25.3699C46.1881 25.7766 46.0519 26.2475 45.6635 26.5187L43.5703 27.9765C43.1315 28.2833 42.5237 28.2239 42.158 27.86C42.1278 27.8291 42.1 27.7982 42.0748 27.7649L40.2691 25.4627C40.2212 25.4009 40.1808 25.3367 40.1506 25.2701C39.9539 24.8467 40.085 24.3378 40.4961 24.05L42.5868 22.5945C42.9751 22.321 43.4972 22.3353 43.8654 22.6016L44.9902 24.0334Z" fill="#888888"/>
<path d="M42.0748 27.7649C42.1 27.7982 42.1278 27.8291 42.158 27.86L42.153 27.8647L40.0674 29.3179C39.7622 29.5295 39.4091 29.6318 39.0561 29.6318C38.5366 29.6318 38.0221 29.4082 37.6892 28.9825C37.1293 28.2691 37.2907 27.2654 38.0448 26.7398L40.1506 25.2701C40.1808 25.3366 40.2212 25.4009 40.2691 25.4627L42.0748 27.7649Z" fill="#F6B1C0"/>
<path d="M27.5939 102.252C29.1752 102.578 29.9519 105.033 29.329 107.737C28.7061 110.441 26.9181 112.37 25.3343 112.046C24.6004 111.894 24.0405 111.285 23.7127 110.403C23.3344 109.387 23.2663 108.01 23.5992 106.562C23.9876 104.88 24.8249 103.501 25.7832 102.773C26.3658 102.331 26.9937 102.131 27.5939 102.252Z" fill="#888888"/>
<path d="M53.5823 63.2202V61.924C53.5823 61.924 62.8807 65.7245 74.7892 65.294C78.1787 65.294 83.5504 64.9373 87.6889 63.1488C87.704 64.1691 87.704 64.6876 87.704 64.6876L87.8351 65.294C87.8351 65.294 87.5527 65.9409 86.9651 66.2002C87.1088 66.8922 87.477 68.4024 87.477 68.4024L72.2244 67.3655L70.7314 67.4749L65.9019 67.1943L53.5823 63.2202Z" fill="#231F20"/>
<path d="M81.2958 42.2057H82.3272C82.3272 42.2057 82.9476 43.2379 83.7496 43.2831C83.0107 43.3497 82.0498 43.4139 81.2958 42.2057Z" fill="#231F20"/>
<path d="M55.6226 13.7188C55.6226 13.7188 58.2555 13.978 59.6299 15.8569C59.0574 14.6463 58.3236 13.2217 57.7965 12.7461C58.6212 12.6391 59.7434 12.5083 59.7434 12.5083C59.7434 12.5083 58.5758 10.9957 57.8873 10.9101C57.5922 10.8887 55.8975 11.1693 55.6226 13.7188Z" fill="#231F20"/>
<path d="M80.3097 11.2977C80.3601 11.4214 79.9894 9.82793 79.1647 9.33324C78.6831 9.22622 78.0526 9.55918 78.0526 9.55918L77.5381 10.0681L78.6604 10.501L78.4309 10.1133C78.4334 10.1109 79.6918 9.78749 80.3097 11.2977Z" fill="#231F20"/>
<path d="M86.9978 49.4072H88.7506L89.3533 48.6628L87.7746 48.425L86.9978 49.4072Z" fill="#231F20"/>
<path d="M50.9268 120.151L52.9872 138.164H50.5636V121.664C50.5636 121.664 50.6065 120.627 50.9268 120.151Z" fill="#231F20"/>
<path d="M124.993 93.6288L126.779 114.881L124.622 115.062V95.0986C124.622 95.0986 124.718 93.9761 124.993 93.6288Z" fill="#231F20"/>
<path d="M39.795 146.025L55.1863 160.366L55.2166 155.761L53.2066 155.186L51.2924 154.232C51.2924 154.232 43.6434 149.827 39.795 146.025Z" fill="#231F20"/>
<path d="M55.1182 157.45H57.5569V155.83L55.2165 155.761L55.1182 157.45Z" fill="#231F20"/>
<path d="M100.414 140.604L112.487 141.77L112.447 140.604H100.414Z" fill="#231F20"/>
<path opacity="0.35" d="M71.9949 31.8175C75.1826 31.8175 77.7651 34.2528 77.7651 37.259C77.7651 40.2651 75.1826 42.7028 71.9949 42.7028C68.8072 42.7028 66.2222 40.2651 66.2222 37.259C66.2222 34.2528 68.8072 31.8175 71.9949 31.8175Z" fill="#33C0EA"/>
<path opacity="0.35" d="M93.981 31.8175C97.1688 31.8175 99.7512 34.2528 99.7512 37.259C99.7512 40.2651 97.1688 42.7028 93.981 42.7028C92.889 42.7028 91.8677 42.4151 90.9951 41.918C90.9951 41.918 90.8211 41.1046 89.9989 39.6777C89.1742 38.2531 88.231 37.7299 88.231 37.7299C88.2159 37.5753 88.2084 37.4183 88.2084 37.259C88.2084 34.2528 90.7933 31.8175 93.981 31.8175Z" fill="#33C0EA"/>
<path opacity="0.35" d="M68.3482 35.3302C69.3318 34.2076 70.3481 33.1136 71.3896 32.041C68.4844 32.3264 66.2197 34.6381 66.2197 37.454C66.2197 37.5753 66.2248 37.6942 66.2348 37.8131C66.9183 36.9664 67.6345 36.1435 68.3482 35.3302Z" fill="#33C0EA"/>
<path opacity="0.35" d="M89.5551 35.0187C90.753 33.9841 91.9963 32.9995 93.2749 32.053C90.9144 32.3241 88.9927 33.939 88.4 36.0604C88.7758 35.7084 89.1616 35.3612 89.5551 35.0187Z" fill="#33C0EA"/>
<path d="M77.7651 37.259C77.7651 40.2651 75.1826 42.7028 71.9949 42.7028C68.8072 42.7028 66.2222 40.2651 66.2222 37.259C66.2222 34.2528 68.8072 31.8175 71.9949 31.8175C75.1826 31.8175 77.7651 34.2528 77.7651 37.259Z" stroke="#231F20" stroke-miterlimit="10" stroke-linecap="round" stroke-linejoin="round"/>
<path d="M90.9951 41.918C91.8677 42.4151 92.889 42.7028 93.981 42.7028C97.1688 42.7028 99.7512 40.2651 99.7512 37.259C99.7512 34.2528 97.1688 31.8175 93.981 31.8175C90.7933 31.8175 88.2084 34.2528 88.2084 37.259C88.2084 37.4183 88.2159 37.5753 88.231 37.7299C88.231 37.7299 89.1742 38.2531 89.9989 39.6777C90.8211 41.1046 90.9951 41.918 90.9951 41.918Z" stroke="#231F20" stroke-miterlimit="10" stroke-linecap="round" stroke-linejoin="round"/>
<path d="M76.2998 33.5869H89.6282" stroke="#231F20" stroke-miterlimit="10" stroke-linecap="round" stroke-linejoin="round"/>
</svg>
